<svg width="160" height="191" viewBox="0 0 160 191" fill="none" xmlns="http://www.w3.org/2000/svg">
<g id="Frame 109">
<rect x="0.5" y="0.5" width="159" height="190" rx="7.5" fill="#050505"/>
<rect x="0.5" y="0.5" width="159" height="190" rx="7.5" stroke="#141414"/>
<g id="Group">
<path id="Vector" d="M136.011 122.215C136.011 140.49 119.122 155 98.8182 155C78.6143 155 61.6396 140.604 61.6396 122.215C61.6396 104.005 78.3776 89.4161 98.8182 89.4161C119.25 89.4161 136.011 104.015 136.011 122.215Z" fill="#F7B617"/>
<path id="Vector_2" d="M73.6316 98.0776V146.338C66.2574 140.335 61.6396 131.758 61.6396 122.215C61.6396 112.672 66.2574 104.081 73.6316 98.0776Z" fill="#231F20"/>
<path id="Vector_3" d="M105.814 90.0041V154.412C103.548 154.804 101.211 155 98.818 155C95.5998 155 92.4793 154.636 89.499 153.95V90.4657C92.4793 89.78 95.5998 89.4161 98.818 89.4161C101.211 89.4161 103.548 89.6122 105.814 90.0041Z" fill="#231F20"/>
<path id="Vector_4" d="M136.011 122.215C136.011 132.346 130.791 141.399 122.606 147.402V97.0002C130.791 103.017 136.011 112.084 136.011 122.215Z" fill="#231F20"/>
<path id="Vector_5" d="M110.987 65.9054C109.653 69.6059 107.378 73.0232 104.177 75.7654L85.4155 91.8513C85.4155 91.8513 68.971 60.721 100.226 35L106.727 42.5761C112.445 49.2441 113.779 58.1957 110.987 65.9054Z" fill="#0FA3BC"/>
<path id="Vector_6" d="M133.999 58.3375V68.3142C133.999 81.3161 123.464 91.8515 110.461 91.8515H85.5362C85.5362 91.8515 93.5255 57.5121 133.999 58.3375Z" fill="#58C3BD"/>
<path id="Vector_7" d="M36.3947 87.1964C33.0884 82.2652 28.8616 79.1867 24.1563 78.2737C23.5522 75.5098 21.0978 73.4376 18.1525 73.4376C14.7546 73.4376 12 76.192 12 79.5901C12 82.9882 14.7546 85.7427 18.1525 85.7427C21.1003 85.7427 23.5573 83.6672 24.1587 80.8995C29.1954 82.1022 32.5583 86.0472 34.2799 88.614C37.598 93.5619 39.2722 101.362 38.6469 108.97L41.1832 109.179C41.8643 100.899 40.0741 92.6817 36.3947 87.1964Z" fill="#231F20"/>
<path id="Vector_8" d="M44.7966 83.4344C43.061 78.9376 40.4518 75.521 37.1877 73.3535C39.4776 69.3946 36.8277 64.5294 32.3896 64.1563C29.0038 63.8714 26.028 66.3854 25.7432 69.7715C25.3047 74.9854 31.1696 78.3454 35.4533 75.258C39.3244 77.6847 41.4079 81.7271 42.4215 84.3514C44.5678 89.9083 44.4814 97.8857 42.1949 105.17L44.6226 105.932C47.1119 98.006 47.1768 89.5959 44.7966 83.4344Z" fill="#231F20"/>
<path id="Vector_9" d="M69.1643 126.069C72.1082 113.602 64.3879 101.109 51.9206 98.165C39.4532 95.2211 26.96 102.941 24.0162 115.409C21.0723 127.876 28.7926 140.369 41.2599 143.313C53.7272 146.257 66.2205 138.537 69.1643 126.069Z" fill="#F7B617"/>
<path id="Vector_10" d="M59.9634 115.777C62.1819 122.885 58.5265 130.58 51.4742 133.266C44.4215 135.951 36.5739 132.635 33.5033 125.853L32.4825 126.241C35.7694 133.588 44.2466 137.186 51.863 134.287C59.4792 131.386 63.416 123.061 60.9845 115.389L59.9634 115.777Z" fill="#50151F"/>
<g id="Group_2">
<path id="Vector_11" d="M26.6252 115.667C33.9859 115.536 39.8467 109.462 39.7156 102.102C39.5846 94.7411 33.5113 88.8803 26.1506 89.0114C18.7899 89.1424 12.9292 95.2157 13.0602 102.576C13.1913 109.937 19.2645 115.798 26.6252 115.667Z" fill="#F7B617"/>
<path id="Vector_12" d="M26.4793 113.726C32.7771 113.726 37.8825 108.62 37.8825 102.322C37.8825 96.0247 32.7771 90.9193 26.4793 90.9193C20.1816 90.9193 15.0762 96.0247 15.0762 102.322C15.0762 108.62 20.1816 113.726 26.4793 113.726Z" fill="#CDE2F5"/>
<path id="Vector_13" d="M30.896 102.323C30.896 104.762 28.9186 106.739 26.4793 106.739C24.04 106.739 22.0625 104.762 22.0625 102.323C22.0625 99.8832 24.04 97.906 26.4793 97.906C28.9186 97.906 30.896 99.8832 30.896 102.323Z" fill="#222223"/>
<path id="Vector_14" d="M29.9322 100.396C29.9322 101.238 29.2494 101.921 28.4066 101.921C27.5641 101.921 26.8808 101.238 26.8808 100.396C26.8808 99.5529 27.5641 98.8696 28.4066 98.8696C29.2494 98.8696 29.9322 99.5529 29.9322 100.396Z" fill="#D7D7D7"/>
</g>
<g id="Group_3">
<path id="Vector_15" d="M51.0425 115.668C58.4032 115.537 64.264 109.464 64.1329 102.103C64.0019 94.7423 57.9286 88.8816 50.5679 89.0126C43.2072 89.1436 37.3465 95.2169 37.4775 102.578C37.6086 109.938 43.6818 115.799 51.0425 115.668Z" fill="#F7B617"/>
<path id="Vector_16" d="M50.8974 113.726C57.1952 113.726 62.3006 108.62 62.3006 102.322C62.3006 96.0247 57.1952 90.9193 50.8974 90.9193C44.5997 90.9193 39.4943 96.0247 39.4943 102.322C39.4943 108.62 44.5997 113.726 50.8974 113.726Z" fill="#CDE2F5"/>
<path id="Vector_17" d="M55.314 102.323C55.314 104.762 53.3369 106.739 50.8974 106.739C48.4579 106.739 46.4806 104.762 46.4806 102.323C46.4806 99.8832 48.4579 97.906 50.8974 97.906C53.3369 97.906 55.314 99.8832 55.314 102.323Z" fill="#222223"/>
<path id="Vector_18" d="M54.3503 100.396C54.3503 101.238 53.6674 101.921 52.8246 101.921C51.982 101.921 51.2989 101.238 51.2989 100.396C51.2989 99.5529 51.982 98.8696 52.8246 98.8696C53.6674 98.8696 54.3503 99.5529 54.3503 100.396Z" fill="#D7D7D7"/>
</g>
<path id="Vector_19" d="M135.262 117.753L146.368 123.787L134.912 127.023L135.262 117.753Z" fill="#231F20"/>
</g>
</g>
</svg>
