<svg width="160" height="191" viewBox="0 0 160 191" fill="none" xmlns="http://www.w3.org/2000/svg">
<g id="Frame 108">
<rect x="0.5" y="0.5" width="159" height="190" rx="7.5" fill="#050505"/>
<rect x="0.5" y="0.5" width="159" height="190" rx="7.5" stroke="#141414"/>
<g id="Group">
<path id="Vector" d="M60.8651 46.5243C60.3863 44.2616 58.3807 42.5621 55.9752 42.5621C53.2132 42.5621 50.9742 44.8013 50.9742 47.5631C50.9742 53.4991 59.5866 54.4778 60.8571 48.6276C67.0433 50.1047 73.7392 57.9898 72.6342 71.4449L74.6956 71.6147C75.6147 60.4435 70.8095 48.4675 60.8651 46.5243Z" fill="#FFC842"/>
<path id="Vector_2" d="M71.4483 42.4939C73.3094 39.2762 71.1559 35.3212 67.5481 35.0179C64.7959 34.7864 62.377 36.83 62.1455 39.582C61.7901 43.8073 66.5492 46.5563 70.0381 44.042C77.3795 48.6443 78.2773 59.5652 75.5185 68.3554L77.4918 68.9753C80.8401 58.3136 78.7308 47.3296 71.4483 42.4939Z" fill="#FFC842"/>
<g id="Group_2">
<path id="Vector_3" d="M44.013 127.405C37.9942 136.308 50.3228 147.144 60.1597 152.318C62.0593 153.317 68.8052 154.281 69.6578 146.718C70.6077 138.288 71.1906 137.355 73.7737 120.44C73.7737 120.44 49.7118 118.975 44.013 127.405Z" fill="#FFC842"/>
<path id="Vector_4" d="M44.3849 120.338L73.8154 120.396C73.8154 120.396 63.8124 82.2476 30.121 77.0029C24.4708 76.1229 21.1946 77.2228 19.4463 79.33C13.5258 86.4181 26.56 120.303 44.3849 120.338Z" fill="#EF5455"/>
<path id="Vector_5" d="M46.9578 142.239C48.755 144.343 50.7181 145.793 52.6702 147.563C52.7838 143.852 53.3259 140.585 54.5789 137.355C57.9345 128.706 65.4485 123.64 73.7308 120.359C42.3459 119.077 36.9987 130.577 46.9578 142.239Z" fill="#EF5455"/>
<path id="Vector_6" d="M19.4465 79.3298L73.8156 120.396C73.8156 120.396 63.8126 82.2474 30.1212 77.0027C24.471 76.1229 21.1946 77.2226 19.4465 79.3298Z" fill="#FFC842"/>
</g>
<path id="Vector_7" d="M53.2693 98.796C53.4095 93.1668 48.9598 88.4898 43.3307 88.3496C37.7015 88.2094 33.0245 92.6591 32.8843 98.2882C32.7441 103.917 37.1938 108.594 42.823 108.735C48.4521 108.875 53.1291 104.425 53.2693 98.796Z" fill="#F4A3C7"/>
<path id="Vector_8" d="M98.4557 88.0891C98.4557 77.6759 90.014 69.2346 79.601 69.2346C69.1878 69.2346 60.7465 77.6759 60.7465 88.0891C60.7465 96.4965 66.2522 103.613 73.8528 106.044V148.562C73.8528 152.118 76.7352 155 80.291 155C83.8468 155 86.7291 152.118 86.7291 148.562V105.539C93.6061 102.727 98.4557 95.9781 98.4557 88.0891Z" fill="#EC814C"/>
<path id="Vector_9" d="M90.477 84.1379C92.2802 89.9151 89.309 96.1703 83.5763 98.353C77.8437 100.536 71.4646 97.841 68.9687 92.3275L68.1389 92.6434C70.8108 98.6149 77.7014 101.54 83.8922 99.1828C90.0832 96.8256 93.2832 90.0583 91.3067 83.822L90.477 84.1379Z" fill="#50151F"/>
<g id="Group_3">
<path id="Vector_10" d="M70.9127 81.8709C75.6895 78.2659 76.6394 71.4711 73.0344 66.6944C69.4294 61.9177 62.6347 60.9678 57.8579 64.5728C53.0812 68.1778 52.1313 74.9725 55.7363 79.7492C59.3413 84.526 66.136 85.4759 70.9127 81.8709Z" fill="#EC814C"/>
<path id="Vector_11" d="M73.6658 73.2011C73.6658 78.3203 69.5158 82.4701 64.3968 82.4701C59.2778 82.4701 55.1278 78.3203 55.1278 73.2011C55.1278 68.0818 59.2778 63.9319 64.3968 63.9319C69.5158 63.9319 73.6658 68.0818 73.6658 73.2011Z" fill="#CDE2F5"/>
<path id="Vector_12" d="M67.9869 73.2011C67.9869 75.1839 66.3794 76.791 64.3968 76.791C62.414 76.791 60.8067 75.1837 60.8067 73.2011C60.8067 71.2184 62.4142 69.611 64.3968 69.611C66.3794 69.6108 67.9869 71.2182 67.9869 73.2011Z" fill="#222223"/>
<path id="Vector_13" d="M67.2037 71.6344C67.2037 72.3194 66.6484 72.8746 65.9633 72.8746C65.2785 72.8746 64.7231 72.3194 64.7231 71.6344C64.7231 70.9495 65.2783 70.394 65.9633 70.394C66.6482 70.394 67.2037 70.9495 67.2037 71.6344Z" fill="#D7D7D7"/>
</g>
<g id="Group_4">
<path id="Vector_14" d="M90.4141 82.663C95.6342 79.7361 97.4933 73.1315 94.5663 67.9113C91.6393 62.6912 85.0348 60.8322 79.8146 63.7591C74.5945 66.6861 72.7354 73.2906 75.6624 78.5108C78.5893 83.731 85.1939 85.59 90.4141 82.663Z" fill="#EC814C"/>
<path id="Vector_15" d="M94.3598 73.2011C94.3598 78.3203 90.2101 82.4701 85.0908 82.4701C79.9716 82.4701 75.8218 78.3203 75.8218 73.2011C75.8218 68.0818 79.9716 63.9319 85.0908 63.9319C90.2101 63.9319 94.3598 68.0818 94.3598 73.2011Z" fill="#CDE2F5"/>
<path id="Vector_16" d="M88.6809 73.2011C88.6809 75.1839 87.0735 76.791 85.0908 76.791C83.108 76.791 81.5007 75.1837 81.5007 73.2011C81.5007 71.2184 83.1082 69.611 85.0908 69.611C87.0737 69.6108 88.6809 71.2182 88.6809 73.2011Z" fill="#222223"/>
<path id="Vector_17" d="M87.8977 71.6344C87.8977 72.3194 87.3424 72.8746 86.6573 72.8746C85.9725 72.8746 85.4171 72.3194 85.4171 71.6344C85.4171 70.9495 85.9723 70.394 86.6573 70.394C87.3423 70.394 87.8977 70.9495 87.8977 71.6344Z" fill="#D7D7D7"/>
</g>
<g id="Group_5">
<path id="Vector_18" d="M116.524 127.491C122.543 136.395 110.214 147.23 100.377 152.404C98.4776 153.403 91.7317 154.367 90.8793 146.804C89.9294 138.374 89.3465 137.441 86.7635 120.526C86.7635 120.526 110.825 119.062 116.524 127.491Z" fill="#FFC842"/>
<path id="Vector_19" d="M141.091 79.4162C139.342 77.3088 136.066 76.2091 130.416 77.0891C96.7245 82.3338 86.7215 120.483 86.7215 120.483L116.152 120.425C133.977 120.39 147.011 86.5043 141.091 79.4162Z" fill="#EF5455"/>
<path id="Vector_20" d="M113.579 142.325C111.782 144.429 109.819 145.879 107.867 147.649C107.753 143.938 107.211 140.671 105.958 137.441C102.603 128.792 95.0886 123.726 86.8064 120.445C118.191 119.163 123.538 130.663 113.579 142.325Z" fill="#EF5455"/>
<path id="Vector_21" d="M141.091 79.4162L86.7215 120.482C86.7215 120.482 96.7245 82.3336 130.416 77.0888C136.066 76.209 139.343 77.3088 141.091 79.4162Z" fill="#FFC842"/>
</g>
<path id="Vector_22" d="M117.974 108.745C123.603 108.605 128.053 103.928 127.912 98.2989C127.772 92.6697 123.095 88.2201 117.466 88.3603C111.837 88.5005 107.387 93.1775 107.527 98.8066C107.668 104.436 112.345 108.885 117.974 108.745Z" fill="#F4A3C7"/>
</g>
</g>
</svg>
