<svg width="160" height="191" viewBox="0 0 160 191" fill="none" xmlns="http://www.w3.org/2000/svg">
<g id="Frame 101">
<rect x="0.5" y="0.5" width="159" height="190" rx="7.5" fill="#050505"/>
<rect x="0.5" y="0.5" width="159" height="190" rx="7.5" stroke="#141414"/>
<g id="Group">
<g id="Group_2">
<g id="Group_3">
<path id="Vector" d="M88.1127 140.71C87.8224 139.546 87.4925 138.244 87.114 136.771C85.5878 130.826 83.9696 124.898 83.9536 124.838L81.4742 125.848C82.831 130.818 84.2348 136.145 85.3757 140.71H88.1127Z" fill="#FF6821"/>
</g>
<path id="Vector_2" d="M87.1139 136.77C88.1127 141.422 91.7169 138.979 92.0217 140.71H82.9138C82.9138 140.71 82.3543 139.743 83.7278 139.59C85.1013 139.437 83.1828 132.208 83.1828 132.208" fill="#FF6821"/>
<g id="Group_4">
<path id="Vector_3" d="M80.2254 140.71C79.9351 139.546 79.6052 138.244 79.2267 136.771C77.7004 130.826 76.0822 124.898 76.0663 124.838L73.5869 125.848C74.9436 130.818 76.3483 136.145 77.4884 140.71H80.2254Z" fill="#FF922E"/>
</g>
<path id="Vector_4" d="M79.2275 136.77C80.2262 141.422 83.8305 138.979 84.1353 140.71H75.0273C75.0273 140.71 74.4679 139.743 75.8413 139.59C77.2155 139.437 75.2964 132.208 75.2964 132.208" fill="#FF922E"/>
</g>
<g id="Group_5">
<g id="Group_6">
<path id="Vector_5" d="M45.0477 116.81L25 136.714C25 136.714 40.5526 137.974 59.7513 120.192C78.95 102.41 45.0477 116.81 45.0477 116.81Z" fill="#0D5693"/>
<path id="Vector_6" d="M122.688 62.0434C133.263 60.9755 140.898 76.4422 131.157 85.7501C131.157 85.7501 131.948 74.2106 118.936 74.8833C118.936 74.8833 115.563 81.0802 124.048 80.9608C124.048 80.9608 117.908 86.558 112.28 78.141C106.652 69.7247 122.688 62.0434 122.688 62.0434Z" fill="#4C4751"/>
<path id="Vector_7" d="M56.8828 122.611C75.6969 132.548 96.2053 131.248 105.714 118.063C115.222 104.877 109.428 85.8729 109.428 85.8729L122.689 62.0439C122.689 62.0439 113.089 47.3904 97.204 53.4824C81.5799 59.4748 87.5716 80.4605 87.5716 80.4605L56.8828 122.611Z" fill="#FFE132"/>
<path id="Vector_8" d="M90.4819 106.482C85.6638 103.093 80.8768 99.6621 76.0952 96.222L56.8828 122.611C75.6969 132.548 96.2052 131.248 105.714 118.063C105.895 117.81 106.07 117.555 106.241 117.299C100.938 113.766 95.6929 110.148 90.4819 106.482Z" fill="#FFB724"/>
<path id="Vector_9" d="M105.05 52.0034C102.684 52.0589 96.2585 53.1671 95.2795 63.4425C94.4199 72.4623 105.119 79.3076 111.312 82.4869L122.689 62.0432C122.689 62.0432 116.193 52.1334 105.05 52.0034Z" fill="#F6ECDE"/>
<path id="Vector_10" d="M45.0477 116.81L73.9495 84.8089C79.3088 78.8742 88.2625 77.8907 94.7824 82.5203C101.686 87.422 103.499 96.9055 98.8648 103.991C96.1057 108.21 92.4224 112.798 87.6552 116.81C67.5269 133.753 45.0477 116.81 45.0477 116.81Z" fill="#0D6FAE"/>
<path id="Vector_11" d="M97.4821 104.907C97.6562 105.028 97.8295 105.151 98.0036 105.272C98.2992 104.842 98.5881 104.414 98.8647 103.991C103.499 96.9055 101.685 87.422 94.7824 82.5203C88.2624 77.8907 79.3095 78.8742 73.9495 84.8089L71.9688 87.0025C80.309 93.2001 88.9541 98.9729 97.4821 104.907Z" fill="#0D5EAE"/>
<path id="Vector_12" d="M60.7942 99.3749L45.0477 116.81C45.0477 116.81 67.5277 133.752 87.6552 116.81C87.789 116.697 87.9205 116.583 88.0527 116.469C78.9562 110.787 69.8854 105.064 60.7942 99.3749Z" fill="#387FBD"/>
<path id="Vector_13" d="M113.087 79.2521C94.3909 74.2653 93.5678 53.269 105.922 52.0339C105.395 52.0035 104.858 51.9943 104.31 52.0088C99.1528 52.5043 90.3603 55.4139 91.79 69.6987C93.0236 82.018 109.427 85.8731 109.427 85.8731L113.087 79.2521Z" fill="#4C4751"/>
<path id="Vector_14" d="M113.78 64.8643C112.169 64.8643 110.857 63.5532 110.857 61.9411C110.857 60.329 112.168 59.0178 113.78 59.0178C115.393 59.0178 116.704 60.329 116.704 61.9411C116.704 63.5524 115.393 64.8643 113.78 64.8643Z" fill="#4C4751"/>
</g>
</g>
</g>
</g>
</svg>
