<svg width="160" height="191" viewBox="0 0 160 191" fill="none" xmlns="http://www.w3.org/2000/svg">
<g id="Frame 98">
<rect x="0.5" y="0.5" width="159" height="190" rx="7.5" fill="#050505"/>
<rect x="0.5" y="0.5" width="159" height="190" rx="7.5" stroke="#141414"/>
<g id="Group">
<path id="Vector" d="M51.927 100.647L51.143 110.066L49.866 121.741L48.886 131.258L46.532 136.162L46.727 139.106L51.338 139.695L59.384 139.5L60.07 135.966L55.753 107.808L57.813 96.968L51.927 100.647Z" fill="#AA8984"/>
<path id="Vector_2" d="M120.408 117.523L117.857 120.759L115.993 128.117L115.894 132.337L117.66 138.517L117.465 140.088L106.574 140.48L102.356 139.792L101.473 137.535L102.454 135.281L103.63 131.356L104.711 121.348L105.593 108.399L113.245 108.301L120.408 117.523Z" fill="#6D5B5D"/>
<path id="Vector_3" d="M35.836 58.804L36.573 56.89L38.485 55.027L40.743 53.26L54.233 49.975L57.619 49.238L63.209 51.74L69.685 55.861L80.722 59.981L86.314 60.129L102.356 58.216L113.834 57.921L124.873 63.66L133.408 70.871L140.471 79.849L141.649 93.975L142.237 110.164V113.695L141.207 113.843L140.471 106.191L139 88.09L138.558 89.413L135.761 99.126L135.321 105.013L136.35 115.607L134.732 120.023L133.408 122.379L133.847 128.707L135.174 137.242L136.938 140.628L136.498 142.687L132.23 143.864L122.37 144.158L120.309 143.864L119.72 141.805L122.222 139.303L123.548 136.065L122.958 128.412L119.426 118.699L114.57 113.254L111.185 110.164L107.359 110.901L92.79 112.372L81.459 109.869L68.066 104.572L66.889 109.134L66.743 113.254L65.711 121.79L66.448 134.005L67.92 138.272L68.215 143.228L56.833 144.404L52.026 143.816L51.535 140.088L52.566 137.292L53.449 136.849L54.527 135.034L55.263 131.651L53.938 115.315L50.848 97.508L49.081 88.825L47.168 82.35L45.403 83.087L41.576 86.323L39.516 86.765L35.836 86.176L34.365 90.885L33.777 96.331L33.63 102.217L35.984 105.454L38.192 105.16L39.076 101.188L37.897 100.598L36.721 102.658L37.015 103.689L36.279 103.984L34.219 100.745L34.071 97.948H36.426L39.664 97.655L42.313 101.188L42.754 106.043L40.399 110.458L33.777 111.929L28.773 105.749L27.155 98.097L28.333 87.5L30.392 77.492L32.599 70.871L33.334 64.544L34.513 60.864L35.836 58.804Z" fill="#6D5B5D"/>
<path id="Vector_4" d="M142.581 113.304L140.618 113.501L140.031 118.405L141.01 122.723L140.52 125.272L139.636 126.351L142.089 124.684L143.462 121.545L143.758 116.149L142.581 113.304Z" fill="#6D5B5D"/>
<path id="Vector_5" d="M47.168 82.35L45.403 83.087L41.576 86.323L39.516 86.765L37.109 86.379L36.868 83.233L37.897 82.645L39.076 83.087L39.81 84.999L40.988 84.557L44.962 81.909L47.61 79.407L51.143 78.229L52.173 80.143L49.376 81.614L50.555 85.147L51.878 92.356L52.909 100.745L51.756 102.742L50.848 97.508L49.081 88.825L47.168 82.35Z" fill="#5E4D4F"/>
<path id="Vector_6" d="M69.2431 58.2159L71.1561 61.0109L72.481 65.5729L71.8931 68.5159L67.9201 75.2859L66.5941 79.8489L67.9201 83.2329L78.2201 89.1199L91.4651 93.9749L100.296 94.2709L117.807 85.4399H121.193H126.196L128.55 79.2609L126.343 69.9889L122.736 62.5509L124.873 63.6599L133.408 70.8709L140.471 79.8489L141.649 93.9749L142.237 110.164V113.695L141.207 113.843L140.471 106.191L139 88.0899L138.558 89.4129L135.761 99.1259L135.321 105.013L136.35 115.607L134.732 120.023L133.408 122.379L133.847 128.707L135.174 137.242L136.938 140.628L136.498 142.687L132.23 143.864L122.37 144.158L120.309 143.864L119.72 141.805L122.222 139.303L123.548 136.065L122.958 128.412L119.426 118.699L114.57 113.254L111.185 110.164L107.359 110.901L92.7901 112.372L81.4591 109.869L68.0661 104.572L66.8891 109.134L66.7431 113.254L65.7111 121.79L66.4481 134.005L67.9201 138.272L68.2151 143.228L58.1841 144.264L58.5001 140.48L60.7081 137.535L61.7381 134.151L60.8551 126.794L59.0891 116.935L61.1501 108.692L59.9731 101.629L58.6481 97.8019L56.2931 90.2959L53.203 87.7949L52.9091 83.6739L61.884 63.2189L69.2431 58.2159Z" fill="#5E4D4F"/>
<path id="Vector_7" d="M130.48 143.916L129.727 142.245L130.463 138.861L127.667 138.125L127.225 136.801L127.52 132.534L128.109 125.764L128.255 120.613L130.463 117.376L130.609 110.901C130.609 110.901 131.788 101.629 131.788 101.188C131.788 100.745 134.289 92.21 134.289 92.21L137.085 85.881L138.852 81.173L139.148 86.323L138.992 88.108L138.558 89.414L135.761 99.127L135.321 105.014L136.35 115.608L134.732 120.024L133.408 122.379L133.847 128.707L135.174 137.242L136.938 140.628L136.497 142.688L132.229 143.865L130.48 143.916Z" fill="#47383B"/>
<path id="Vector_8" d="M68.066 104.572L67.783 105.667L68.215 102.658L69.685 96.772L71.009 96.331L71.303 98.243L71.745 100.598L74.248 101.924L82.929 104.425L95.881 106.191L104.269 103.984L108.536 101.483L112.363 98.98L114.865 95.743L117.66 92.356L118.691 92.799L116.042 97.36L113.834 104.425L112.509 107.808V111.372L111.185 110.164L107.359 110.901L92.79 112.372L81.459 109.869L68.066 104.572Z" fill="#47383B"/>
<path id="Vector_9" d="M32.2061 95.447L33.285 88.482L35.5431 85.342L37.701 84.951L37.8381 86.496L35.8361 86.176L34.3651 90.885L33.7771 96.331L33.6301 102.217L35.9841 105.454L38.1921 105.16L39.076 101.188L37.897 100.598L36.7211 102.658L37.0151 103.689L36.2791 103.984L34.2191 100.745L34.0711 97.948H36.4261L38.5191 97.759L38.6831 99.077L39.8581 100.059L39.7621 102.316V105.749L38.093 107.418H35.5431L33.8761 105.65L32.5991 102.02L32.2061 95.447Z" fill="#5E4D4F"/>
<path id="Vector_10" d="M36.033 102.119L36.72 100.551L35.149 98.98L35.052 100.157L36.033 102.119Z" fill="#47383B"/>
<path id="Vector_11" d="M73.5111 61.797L65.4671 56.302L65.3051 53.072L69.6851 55.861L80.7221 59.981L86.3141 60.129L102.356 58.216L113.834 57.921L117.975 60.073L114.129 59.834L105.495 61.011L94.1131 64.544L83.1261 63.954L73.5111 61.797Z" fill="#AA8984"/>
<path id="Vector_12" d="M30.392 77.492L32.599 70.871L33.334 64.544L34.513 60.864L35.836 58.804L36.573 56.89L38.485 55.027L40.743 53.26L54.233 49.975L57.619 49.238L57.912 49.369L53.694 51.103L47.217 53.162L40.153 55.322L38.192 57.284L36.622 59.637L34.66 63.17L33.68 67.682V71.41L31.324 77.885L30.342 81.614L29.162 83.47L30.392 77.492Z" fill="#AA8984"/>
<path id="Vector_13" d="M35.8361 66.114L36.6221 63.954L37.897 62.974L41.037 63.268L43.2931 66.016L43.1951 68.271C43.1951 68.271 40.7431 70.037 40.6451 70.331C40.5461 70.626 38.2911 70.919 37.9971 70.919C37.7021 70.919 35.8371 69.839 35.8371 69.839L35.8361 66.114Z" fill="#6D5B5D"/>
<path id="Vector_14" d="M40.645 65.917L41.137 67.486L39.368 67.879L37.309 68.174V66.899L38.094 65.524L40.645 65.917Z" fill="#47383B"/>
<path id="Vector_15" d="M36.526 65.72L36.249 64.984L36.623 63.954L37.898 62.974L41.038 63.268L43.294 66.016L43.196 68.271C43.196 68.271 43.167 68.293 43.124 68.323L42.902 67.879L41.233 66.899L38.291 66.406L36.526 65.72Z" fill="#AA8984"/>
<path id="Vector_16" d="M35.87 69.86L37.113 70.037L39.86 69.744L41.541 69.514C41.076 69.883 40.682 70.217 40.645 70.332C40.546 70.627 38.291 70.92 37.997 70.92C37.723 70.92 36.11 69.997 35.87 69.86Z" fill="#5E4D4F"/>
<path id="Vector_17" d="M52.481 143.871L52.809 140.579L53.398 139.597L53.987 140.282L53.791 142.147V144.032L52.481 143.871Z" fill="#5E4D4F"/>
<path id="Vector_18" d="M56.8331 144.404L54.7561 144.149L54.576 141.364L55.6551 140.48L56.7351 140.775L57.856 144.299L56.8331 144.404Z" fill="#AA8984"/>
<path id="Vector_19" d="M123.449 140.97L124.462 144.097L122.37 144.158L120.976 143.959L120.898 142.735L122.174 140.97H123.449Z" fill="#6D5B5D"/>
<path id="Vector_20" d="M125.329 144.071L125.411 141.951L126.393 141.067L127.864 142.147L127.986 143.991L125.329 144.071Z" fill="#6D5B5D"/>
<path id="Vector_21" d="M105.397 136.556L106.182 139.106V140.415L102.509 139.818L102.356 138.124L103.925 135.968L105.397 136.556Z" fill="#5E4D4F"/>
<path id="Vector_22" d="M53.6941 51.103L56.3441 50.219L59.0891 48.062L60.953 46L64.3871 48.158L68.8021 53.654L70.6651 63.17L69.4891 66.212L61.9351 77.984L57.619 84.459L56.9321 86.225L54.0861 86.52L51.7331 82.987L49.5731 76.61L51.1431 69.94L51.2401 65.329L49.6711 62.385L48.1021 62.189L49.9641 57.186L52.0261 54.34L53.6941 51.103Z" fill="#6D5B5D"/>
<path id="Vector_23" d="M49.9641 57.186L52.0261 54.34L53.6941 51.103L56.3441 50.219L57.1761 49.564L58.6481 50.269L62.4741 53.506L66.1541 59.981L61.2971 73.226L57.3231 77.787L54.0861 78.229L52.173 75.579L50.44 72.925L51.1431 69.94L51.2401 65.329L49.6711 62.385L48.1021 62.189L49.9641 57.186Z" fill="#AA8984"/>
<path id="Vector_24" d="M37.603 83.381L38.339 83.968L39.076 85.587L38.487 86.617L36.426 87.795L31.422 89.708L23.624 90.885L18.472 90.591L17 89.56V88.53L18.913 89.12L24.505 88.384L30.54 86.912L35.102 85.147L37.603 83.381Z" fill="#F9D9B9"/>
<path id="Vector_25" d="M17 89.56V89.48L18.252 89.781H24.137L30.687 88.751L37.088 86.028L38.556 84.446L39.076 85.587L38.487 86.617L36.426 87.795L31.422 89.708L23.624 90.885L18.472 90.591L17 89.56Z" fill="#D8A97C"/>
</g>
</g>
</svg>
