<svg width="160" height="191" viewBox="0 0 160 191" fill="none" xmlns="http://www.w3.org/2000/svg">
<g id="Frame 100">
<rect x="0.5" y="0.5" width="159" height="190" rx="7.5" fill="#050505"/>
<rect x="0.5" y="0.5" width="159" height="190" rx="7.5" stroke="#141414"/>
<g id="Group">
<path id="Vector" d="M28.3057 72.6946L27.797 69.4284L26.7092 66.888L27.2898 65.6537L30.4094 67.5404L34.039 71.3138L28.3057 72.6946Z" fill="#6D574F"/>
<path id="Vector_2" d="M63.2862 112.681L65.1729 119.793L66.7694 125.745L67.3499 130.245L66.6229 133.582L64.0119 134.309L62.8508 136.05V137.792L65.6083 138.372L69.9622 138.082L70.5428 136.05L72.1392 132.857L71.5587 130.68L70.9782 123.713L70.2539 112.536L69.3817 105.57L63.8667 106.586L63.2862 112.681Z" fill="#876E62"/>
<path id="Vector_3" d="M71.324 132.875L70.3976 134.508L70.0165 136.412L69.5269 135.923L70.0165 132.439L71.324 132.875Z" fill="#6D574F"/>
<path id="Vector_4" d="M70.2539 112.536L69.3818 105.57L63.8668 106.586L63.2863 112.681L65.173 119.793L66.4195 124.44L66.806 120.193L68.3292 114.913L70.3705 114.351L70.2539 112.536Z" fill="#AD8F80"/>
<path id="Vector_5" d="M67.4585 135.977L67.4042 135.65L66.5877 135.869L65.39 137.012L64.9384 138.233L65.4782 138.345L65.607 137.828L66.0967 136.739L67.4585 135.977Z" fill="#6D574F"/>
<path id="Vector_6" d="M63.4843 136.631L63.1547 137.857L63.5317 137.936L63.7026 137.12L64.1909 136.141L65.0088 135.325L64.3008 135.433L63.4843 136.631Z" fill="#6D574F"/>
<path id="Vector_7" d="M70.9782 123.713L70.2539 112.536L69.3818 105.57L67.514 105.913L69.0915 116.165L70.0708 123.241L70.5062 129.555L72.0362 133.065L72.1392 132.857L71.5587 130.68L70.9782 123.713Z" fill="#D6C9C3"/>
<path id="Vector_8" d="M118.442 84.0881L122.942 84.2333L129.763 88.2969L138.182 99.9088L141.955 108.763L142.536 114.859L140.794 119.067H138.327L130.634 111.375L126.425 98.0221L123.087 90.9093L120.473 88.7323L118.442 84.0881Z" fill="#AD8F80"/>
<path id="Vector_9" d="M140.394 113.443L137.128 111.376L133.536 108.001L130.923 102.886L126.896 94.7194L123.847 88.8422L119.967 87.5795L120.472 88.7337L123.086 90.9107L126.424 98.0235L130.631 111.377L138.324 119.069H140.793L142.533 114.86L142.319 112.611C142.03 112.462 141.808 112.356 141.808 112.356L140.394 113.443Z" fill="#D6C9C3"/>
<path id="Vector_10" d="M140.556 105.478L138.182 99.9088L129.763 88.2969L122.942 84.2333L122.201 84.2089L127.223 87.6432L131.686 93.523L134.952 99.9454L138.544 104.735L140.556 105.478Z" fill="#876E62"/>
<path id="Vector_11" d="M95.363 103.682L97.3948 111.375L101.315 117.762L104.653 122.261L104.798 124.438L101.895 130.39L100.443 132.857L99.5718 133.727L96.524 134.744L94.347 137.645L94.9289 138.227L100.009 137.937L102.911 137.211L103.492 133.872L107.555 128.794L110.75 124.438L111.765 122.261L111.474 120.228L109.297 117.472L109.442 108.326L104.943 101.649L95.363 103.682Z" fill="#876E62"/>
<path id="Vector_12" d="M109.297 117.472L109.442 108.326L104.943 101.649L95.3629 103.682L97.3947 111.375L100.799 116.923L102.839 115.003L106.466 114.276L108.065 117.617L110.676 121.536L109.835 125.683L110.75 124.438L111.765 122.261L111.474 120.228L109.297 117.472Z" fill="#AD8F80"/>
<path id="Vector_13" d="M110.75 124.438L111.765 122.261L111.474 120.228L109.297 117.472L109.442 108.326L108.809 107.385C107.851 108.165 106.903 108.98 106.903 108.98C106.831 109.27 107.266 116.601 107.266 116.601L108.716 121.1V124.874L105.959 129.155L103.201 133.074L102.548 135.251L103.124 135.982L103.492 133.872L107.555 128.792L110.75 124.438Z" fill="#D6C9C3"/>
<path id="Vector_14" d="M18.2903 89.8935L21.7734 85.6847L23.3712 82.7807L23.5163 80.3135L24.6774 76.5401L27.7251 72.3313L31.2083 70.7335L38.7551 71.1689L43.4006 73.2021L46.3033 74.0729L59.365 74.9437L63.5765 73.9278L66.3327 73.6375L70.688 75.6693L81.7193 76.8317L94.6373 76.2512L102.766 75.0902L110.604 76.5401L119.891 82.9272L122.505 91.9253L123.666 102.957L122.216 112.972L123.231 117.037L125.699 119.94L126.86 120.954L126.28 126.906L123.958 135.76L122.795 137.066L121.779 139.969L118.441 141.13L116.99 140.985L116.555 139.969L114.378 140.405L113.072 139.389L115.103 136.196L118.732 135.47L119.748 133.727L121.779 123.568L116.845 120.083L113.072 116.021L105.669 108.763L102.185 104.264L98.5558 104.845L86.5086 106.586L73.1552 107.747L65.6084 108.183L63.7203 115.149L62.2704 123.278L61.542 128.649L61.9788 131.405V132.711L59.658 135.905L58.497 139.534L57.6248 140.259H51.8196L50.3683 139.824L50.9474 137.792L54.1417 135.615L56.6089 129.81L56.754 124.874L54.4333 109.197L53.1258 106.15L48.19 102.957L43.5458 97.2966L41.8042 96.716L39.6259 98.6027L37.0135 96.716L32.9498 91.3448L30.0486 90.3289L25.8371 92.7975L23.6601 93.6683L20.4672 92.9426L18 91.49L18.2903 89.8935Z" fill="#AD8F80"/>
<path id="Vector_15" d="M126.812 121.442L124.247 121.244L122.07 119.359L119.022 115.729L115.103 109.634L110.749 106.586L103.346 98.8929L101.315 94.1036L98.5558 93.3766L95.2178 95.9903L91.009 96.716L82.59 98.0221L76.0578 98.1673L69.2366 97.2965L64.7375 96.716L62.996 98.311L64.157 102.957L65.6083 106.006L65.8145 108.17L73.1551 107.747L86.5085 106.586L98.5558 104.845L102.185 104.264L105.669 108.763L113.072 116.021L116.845 120.083L121.779 123.568L119.748 133.727L118.732 135.47L115.103 136.196L113.072 139.389L114.378 140.404L116.555 139.969L116.99 140.985L118.441 141.13L121.779 139.969L122.795 137.066L123.958 135.76L126.28 126.906L126.812 121.442Z" fill="#D6C9C3"/>
<path id="Vector_16" d="M53.1258 106.573L53.3306 107.061L53.4161 103.596L51.8196 99.7245L52.255 94.9623L50.3683 90.4958L48.6254 89.6033L47.7559 91.985L45.4325 96.1532L45.5424 99.9889L48.19 103.298L53.1258 106.573Z" fill="#D6C9C3"/>
<path id="Vector_17" d="M38.6113 96.2793L38.1759 92.7975L35.8525 89.8922L33.9658 87.5714L34.5463 85.975L37.4489 83.7967V81.4759L31.7888 81.1857L29.6118 84.3772L27.7251 84.8126L24.3871 86.5555L23.2261 85.975L21.5822 85.9167L18.2903 89.8935L18 91.49L20.4672 92.9426L23.6601 93.6683L25.8371 92.7975L30.0486 90.3289L32.9498 91.3448L37.0135 96.716L38.8107 98.0141L38.6113 96.2793Z" fill="#D6C9C3"/>
<path id="Vector_18" d="M54.866 100.054L53.5612 96.7156C53.5612 96.7156 54.1417 92.2166 54.1417 91.7798C54.1417 91.3431 54.5784 87.4273 54.5784 87.4273L54.7222 81.0401L57.1894 77.4119L56.0297 82.6352L57.3359 89.4577L58.497 93.813L57.3359 97.0059L54.866 100.054Z" fill="#876E62"/>
<path id="Vector_19" d="M26.3091 80.4586L24.8931 82.4172C25.22 82.5257 26.7445 81.0012 26.7445 81.0012L26.3091 80.4586Z" fill="#876E62"/>
<path id="Vector_20" d="M25.7109 79.9147L26.3633 80.7855L26.5817 81.4392L27.3969 80.7855L28.0507 79.425L26.9073 79.7519L25.7109 79.9147Z" fill="#6D574F"/>
<path id="Vector_21" d="M26.5817 80.0773L26.8 80.567L27.0171 80.35L26.9614 80.0231L26.5817 80.0773Z" fill="#AD8F80"/>
<path id="Vector_22" d="M18 91.4901L19.9111 92.6158L19.6683 91.2364L20.4306 90.801L20.3221 89.9302L19.4513 89.8217L19.1027 88.913L18.2903 89.8936L18 91.4901Z" fill="#6D574F"/>
<path id="Vector_23" d="M26.853 90.6924L24.0236 92.5072L21.9457 93.2776L22.5303 93.4106L24.3125 92.5778L25.7652 91.7083L27.9435 90.4022L29.6118 89.8216L29.8289 89.3849L28.9581 89.313L26.853 90.6924Z" fill="#6D574F"/>
<path id="Vector_24" d="M25.9822 77.9178L26.7078 75.8141L29.6118 73.2018L31.4253 72.9115L31.0631 75.3068L32.7314 77.4106L36.8697 78.6449L37.0135 80.3864L35.3438 79.8059L31.9339 78.79L30.5545 79.1521L29.2483 77.9911L25.9822 77.9178Z" fill="#876E62"/>
<path id="Vector_25" d="M35.889 86.8809L36.9768 88.9494L38.2844 88.8422L36.8697 86.9908L36.5414 86.0115L35.889 86.8809Z" fill="#876E62"/>
<path id="Vector_26" d="M37.9576 87.0991L41.0054 89.1676L43.0738 91.8884L44.7069 92.4337L45.5777 92.1068L43.6164 90.5836L42.0932 87.2076L37.5222 84.9208L37.9576 87.0991Z" fill="#876E62"/>
<path id="Vector_27" d="M39.0453 91.7798L39.5892 94.6106L41.659 94.5021L43.1822 95.0473L43.7275 94.5021L41.9846 93.4129L40.8968 90.5835L39.1538 89.1675L37.9575 89.6029L39.0453 91.7798Z" fill="#876E62"/>
<path id="Vector_28" d="M44.8153 94.067L45.5776 93.3048L43.1822 92.5425L43.0737 93.0877L44.8153 94.067Z" fill="#876E62"/>
<path id="Vector_29" d="M108.171 77.3019L114.702 81.3303L116.88 85.6843V91.5614L116.553 94.1751L120.69 99.4012L120.907 101.797L121.56 106.042L122.901 108.235L123.666 102.958L122.505 91.9276L119.891 82.9281L110.603 76.5424L102.766 75.0924L94.6372 76.2535L81.7192 76.834L70.6879 75.6729L66.334 73.6411L63.5779 73.9314L59.3663 74.9473L46.6708 74.1009L47.212 74.9107C47.212 74.9107 50.5852 75.6729 50.9121 75.5644C51.239 75.4546 56.6821 75.9998 56.6821 75.9998L61.036 77.7414L66.2607 78.505L70.5062 77.9598L71.0514 79.9197L71.1599 81.7712L72.6831 82.4236L75.404 80.2466L79.214 78.9404L88.6842 78.1795L94.2371 77.9611L100.116 77.1989L108.171 77.3019Z" fill="#876E62"/>
<path id="Vector_30" d="M60.9276 133.092L59.7828 134.454L58.5322 135.052L58.4237 134.672L60.0012 133.202L60.6549 131.677L60.9276 133.092Z" fill="#6B5951"/>
<path id="Vector_31" d="M52.8707 138.7L54.9392 137.829L54.8293 137.393L52.5425 138.264L51.9348 140.259H52.6713C52.7269 139.709 52.8707 138.7 52.8707 138.7Z" fill="#6B5951"/>
<path id="Vector_32" d="M52.3269 137.447L51.1306 138.481L50.8159 139.959L51.1591 140.061L51.3463 138.699L52.3812 137.664L52.3269 137.447Z" fill="#6B5951"/>
<path id="Vector_33" d="M60.4922 101.687L60.6007 106.803L58.3139 109.959L56.5723 110.613L55.8101 109.307L57.8785 107.02L59.4031 102.666L60.4922 101.687Z" fill="#876E62"/>
<path id="Vector_34" d="M66.9146 103.864H65.0632L64.191 108.763L62.4508 116.275L60.9276 123.895L60.8191 128.032L61.6627 129.397L61.542 128.649L62.2704 123.278L63.7204 115.149L65.6084 108.183L68.1312 108.036L68.4378 106.586L66.9146 103.864Z" fill="#D6C9C3"/>
<path id="Vector_35" d="M123.956 122.044L124.827 124.655L124.719 127.813L125.591 124.221L125.263 122.044H123.956Z" fill="#876E62"/>
<path id="Vector_36" d="M126.28 126.906L126.812 121.442L125.716 121.358L126.28 122.334L125.699 126.689L124.61 130.753L123.16 134.527L121.634 136.848L121.192 140.173L121.779 139.969L122.795 137.066L123.958 135.76L126.28 126.906Z" fill="#876E62"/>
<path id="Vector_37" d="M116.191 136.994L114.45 139.026L114.158 140.235L114.378 140.404L114.649 140.351C114.82 139.807 115.103 139.026 115.103 139.026L116.99 136.921L117.716 136.703L117.644 136.339L116.191 136.994Z" fill="#876E62"/>
<path id="Vector_38" d="M118.949 137.283L117.424 138.736L116.632 140.151L116.99 140.985L117.059 140.992C117.236 140.328 117.499 139.387 117.499 139.387L119.023 137.79L118.949 137.283Z" fill="#876E62"/>
<path id="Vector_39" d="M41.8761 75.0154L43.7181 73.2969L43.4007 73.202L40.0179 71.7208L39.6992 74.9069L39.0454 77.0852L40.4615 78.2816L41.8761 75.0154Z" fill="#876E62"/>
<path id="Vector_40" d="M31.2083 70.7335L27.7251 72.33L24.676 76.5401L23.5163 80.3135L23.3712 82.7807L21.7734 85.6847L18.2903 89.8935L18 91.49L18.3391 91.6893L18.8708 90.0386L20.0318 88.5887L22.5709 86.0482L24.0236 83.364L24.0941 81.2589C24.0941 81.2589 24.9663 77.8476 24.9663 77.6306C24.9663 77.4123 26.853 74.2194 26.853 74.2194L28.8116 72.4778L30.8434 71.3168L32.7301 70.9546L32.7939 70.8285L31.2083 70.7335Z" fill="#D6C9C3"/>
<path id="Vector_41" d="M37.8856 76.3229L35.4686 75.6244L34.1109 75.2338L32.8061 74.0727L31.6436 73.9995L31.135 72.9849L32.4425 69.0637L32.8779 65.5819L33.5303 65L36.2892 68.4845L37.9575 73.13L37.8856 76.3229Z" fill="#CF867C"/>
<path id="Vector_42" d="M34.4025 69.1383L33.312 71.4591L32.6473 74.0619L32.806 74.0728L34.1109 75.2338L35.4686 75.6245L35.4957 75.6326L36.2159 74.363L36.3611 71.6774L34.7646 67.8322L34.4025 69.1383Z" fill="#D6C9C3"/>
<path id="Vector_43" d="M33.5303 65L32.8779 65.5819L32.4425 69.0637L31.135 72.9849L31.6436 73.9995L31.7291 74.0063L32.0072 72.1141L32.6596 70.0091L33.095 66.6697L33.7474 67.1051L35.1268 69.7907L35.4889 72.4763L34.8365 74.2178L34.0146 75.1497L34.1109 75.2338L35.4686 75.6244L37.8856 76.3229L37.9575 73.13L36.2892 68.4845L33.5303 65Z" fill="#6D574F"/>
<path id="Vector_44" d="M98.5559 104.845L102.185 104.264L105.669 108.763L113.072 116.021L116.331 119.53L114.233 115.584L107.7 107.747L104.216 102.52L100.297 100.925L92.0236 103.392L74.026 104.554L66.9146 104.264L64.1558 104.409L64.7363 107.02L65.0048 110.411L65.6084 108.183L73.1552 107.747L86.5086 106.586L98.5559 104.845Z" fill="#D6C9C3"/>
</g>
</g>
</svg>
