<svg width="160" height="191" viewBox="0 0 160 191" fill="none" xmlns="http://www.w3.org/2000/svg">
<g id="Frame 99">
<rect x="0.5" y="0.5" width="159" height="190" rx="7.5" fill="#050505"/>
<rect x="0.5" y="0.5" width="159" height="190" rx="7.5" stroke="#141414"/>
<g id="Group">
<path id="Vector" d="M61.719 101.322L56.067 105.296L52.622 109.978C52.622 109.978 49.532 117.308 49.355 117.574C49.179 117.839 48.826 120.048 48.826 120.048L51.74 134.62L54.213 137.005L54.567 137.976L55.362 138.771L56.687 142.569L56.068 143.01L50.769 142.48L47.855 141.334V139.479L48.827 137.977L48.738 136.387L46.884 134.268L47.502 131.089L45.558 121.55L42.467 115.985L50.063 98.675L61.633 96.9971L61.719 101.322Z" fill="#592B22"/>
<path id="Vector_2" d="M47.854 141.332L50.768 142.478L56.067 143.009L56.686 142.567L55.361 138.77L54.566 137.975L54.212 137.004L51.74 134.619L50.432 128.079L47.235 124.683L46.411 125.741L47.5 131.087L46.882 134.266L48.737 136.385L48.826 137.975L47.854 139.477V141.332Z" fill="#C18F74"/>
<path id="Vector_3" d="M56.686 142.567L55.41 138.909L54.125 139.652L51.916 140.358L47.854 140.283V141.332L50.768 142.478L56.067 143.009L56.686 142.567Z" fill="#B28056"/>
<path id="Vector_4" d="M90.6 106.269L92.455 110.509L92.632 119.251L91.571 127.73L91.483 136.474L92.366 138.682L92.896 140.007L92.632 141.685L96.164 142.48L98.196 142.304L99.08 141.067L98.813 139.123L96.164 137.445L95.899 134.443L96.076 126.583L97.4 119.074L98.549 107.77L90.6 106.269Z" fill="#592B22"/>
<path id="Vector_5" d="M100.315 142.036L98.813 139.123L96.164 137.445L95.899 134.443L95.957 131.871L94.53 128.922L93.073 126.669L92.278 128.524L91.56 128.884L91.483 136.474L92.366 138.682L92.896 140.007L92.632 141.685L96.164 142.48L98.196 142.304L100.315 142.036Z" fill="#C18F74"/>
<path id="Vector_6" d="M98.196 142.304L100.315 142.036L98.813 139.123L97.457 138.264L96.429 139.034L93.779 140.447L92.799 140.626L92.632 141.685L96.164 142.48L98.196 142.304Z" fill="#B28056"/>
<path id="Vector_7" d="M39.816 77.2991H34.163L30.896 83.3061L29.394 95.2281L30.101 103.619L29.394 108.212L28.334 111.657C28.334 111.657 31.248 115.895 31.248 116.249C31.248 116.603 31.955 125.081 31.955 125.347C31.955 125.612 30.983 128.702 30.983 128.702L30.012 129.762V130.556L31.513 129.762L32.661 131.97L32.927 134.708L34.162 137.357L34.692 137.092L33.986 134.883L34.78 131.792L37.165 126.493L38.843 114.834L39.816 77.2991Z" fill="#592B22"/>
<path id="Vector_8" d="M118.775 51.333L121.071 50.01L119.659 48.065L117.538 45.945L113.21 45.681L103.76 47.183L99.432 51.245L92.278 63.875L88.923 70.588L88.746 72.972L114.889 52.04L118.775 51.333Z" fill="#592B22"/>
<path id="Vector_9" d="M129.196 61.226L130.697 62.55L131.934 64.316L131.58 68.998L128.225 71.117L126.104 70.323L124.25 69.174L118.421 67.585L116.566 67.763L116.742 70.853L115.595 81.805L111.621 95.494L111.267 101.941L105.791 108.124L104.819 116.16L103.848 123.668L103.671 134.796L104.643 140.536L106.852 143.01L107.028 146.72L101.287 147.338L99.432 146.631L99.786 143.807L98.197 142.305L98.285 138.771L98.639 128.262V119.872L96.96 110.333L93.958 107.859L86.539 106.711L80.533 106.181L69.228 105.21L60.484 101.677L58.099 101.765L54.92 103.619L47.06 111.303L43.793 118.723L41.496 122.343L42.644 129.85L45.029 139.478L47.679 141.155L48.474 142.392L49.534 146.278L48.561 146.809L43.616 145.572L39.995 144.248L40.878 141.952L39.641 138.86L38.847 137.712L38.14 132.413L37.963 125.612L35.314 114.484L36.285 110.774L36.02 105.297L31.781 94.434L33.018 85.868L37.523 77.213L45.913 70.413L53.509 70.235L63.136 73.592C63.136 73.592 68.435 74.828 68.876 74.828C69.319 74.828 81.241 74.739 81.241 74.739L86.276 72.796L89.19 70.853L90.426 70.058L98.463 58.047L103.762 52.306L107.206 49.479L112.594 47.713L117.099 49.745L121.426 55.132L125.224 58.488L129.196 61.226Z" fill="#824A37"/>
<path id="Vector_10" d="M106.852 143.009L104.643 140.535L103.671 134.795L103.848 123.667L104.819 116.159L105.791 108.123L108.022 105.603C108.033 105.125 108.042 104.81 108.042 104.81L107.248 100.704L104.333 96.3321L101.551 90.2361L101.02 87.4561L99.961 87.1901L99.564 88.7811L99.431 93.6821L96.648 100.173L96.252 105.737L96.752 110.161L96.958 110.332L98.637 119.871V128.261L98.283 138.77L98.195 142.304L99.784 143.806L99.43 146.63L101.285 147.337L107.026 146.719L106.852 143.009Z" fill="#68352A"/>
<path id="Vector_11" d="M94.53 105.074L83.269 102.029L71.611 99.776L63.795 96.066L60.217 91.033L57.303 85.203L51.209 79.772L45.645 81.494L40.346 85.07L34.782 91.298L32.542 96.388L36.018 105.296L36.283 110.772L35.313 114.482L37.961 125.61L38.138 132.411L38.845 137.71L39.64 138.858L40.876 141.95L39.994 144.246L43.614 145.57L48.56 146.808L49.532 146.276L48.473 142.391L47.678 141.153L45.027 139.477L42.643 129.849L41.495 122.342L43.792 118.722L47.059 111.302L54.919 103.618L58.098 101.764L60.483 101.676L69.228 105.209L80.532 106.18L86.538 106.71L93.957 107.858L95.114 108.81L94.53 105.074Z" fill="#68352A"/>
<path id="Vector_12" d="M51.872 88.647L55.316 95.14L54.257 98.054L49.619 100.439L45.911 103.088L43.261 99.644L44.452 91.43L47.235 87.853L51.872 88.647Z" fill="#824A37"/>
<path id="Vector_13" d="M106.852 143.009L104.643 140.535L103.671 134.795L103.771 128.541L102.611 126.801L102.346 125.08L101.816 124.02L100.492 127.332L98.6 129.376L98.284 138.77L98.196 142.304L99.786 143.806L99.432 146.63L101.288 147.337L107.028 146.719L106.852 143.009Z" fill="#D3AA8C"/>
<path id="Vector_14" d="M47.678 141.153L45.027 139.477L42.938 131.042L41.407 130.645L39.419 129.319L38.093 130.645L38.138 132.411L38.845 137.71L39.64 138.858L40.876 141.95L39.994 144.246L43.614 145.57L48.56 146.808L49.532 146.276L48.473 142.391L47.678 141.153Z" fill="#D3AA8C"/>
<path id="Vector_15" d="M129.041 64.934L127.253 63.278L125.663 61.159L123.279 58.774L121.357 57.316L121.755 57.912L123.41 59.436L126.061 62.351L127.518 64.206L129.041 64.934Z" fill="#68352A"/>
<path id="Vector_16" d="M130.989 66.0181L131.389 65.0871L130.689 63.9231L130.463 64.3481L130.172 64.7621L130.989 66.0181Z" fill="#68352A"/>
<path id="Vector_17" d="M130.034 65.4651L130.896 65.9271V66.1921L130.101 65.7961L130.034 65.4651Z" fill="#68352A"/>
<path id="Vector_18" d="M129.794 70.1241L128.578 68.9081L125.663 67.981L122.881 67.5841L120.629 67.3181L116.787 65.597L111.355 62.2841L112.283 64.5361L114.667 67.1851L116.608 67.7561L118.421 67.5841L124.25 69.1731L126.104 70.3221L128.225 71.1161L129.794 70.1241Z" fill="#68352A"/>
<path id="Vector_19" d="M130.432 68.511L128.975 67.849L127.385 67.717L128.578 68.379L130.034 69.041L130.426 69.726L130.975 69.38L130.432 68.511Z" fill="#68352A"/>
<path id="Vector_20" d="M121.026 56.9191L120.761 55.7271L119.437 54.9981L118.178 54.9331L116.654 55.2631L116.588 56.3881L117.25 57.3841H119.569L121.026 56.9191Z" fill="#68352A"/>
<path id="Vector_21" d="M120.099 56.256L120.231 55.595L119.072 55.76L118.244 56.521L118.311 56.853L120.629 56.654L120.099 56.256Z" fill="#592B22"/>
<path id="Vector_22" d="M115.462 66.922L114.667 73.678L111.222 80.964L110.295 89.575L110.692 92.754L111.608 95.728L111.621 95.493L115.595 81.804L116.742 70.852L116.566 67.762L117.227 67.698L115.462 66.922Z" fill="#68352A"/>
<path id="Vector_23" d="M117.097 49.744L112.592 47.712L107.204 49.478L103.76 52.305L98.461 58.046L90.424 70.057L89.188 70.852L86.274 72.795L81.239 74.738C81.239 74.738 74.899 74.785 71.295 74.81L73.732 76.195L82.078 76.989L88.701 77.255L90.953 73.015L95.457 66.922L100.757 60.429L105.128 53.805L110.914 50.692L113.873 50.096L117.848 52.349L120.543 54.035L117.097 49.744Z" fill="#68352A"/>
<path id="Vector_24" d="M110.914 50.691L111.621 49.182L111.886 47.296L115.595 43.296L116.125 43.673L115.419 46.466L113.916 48.956L113.387 50.39L112.503 51.068L110.914 50.691Z" fill="#824A37"/>
<path id="Vector_25" d="M114.667 45.394L113.607 47.248L113.276 49.301L113.693 49.56L113.916 48.956L115.419 46.466L115.956 44.344L114.667 45.394Z" fill="#592B22"/>
<path id="Vector_26" d="M42.643 143.716L41.357 144.744L43.614 145.57L48.56 146.808L49.532 146.276L48.473 142.391L48.09 141.795L45.911 142.126L42.643 143.716Z" fill="#B28056"/>
<path id="Vector_27" d="M48.473 142.391L48.09 141.795L45.911 142.126L43.321 143.387L43.879 143.274L47.412 142.921H48.616L48.473 142.391Z" fill="#9E6E49"/>
<path id="Vector_28" d="M106.852 143.009L106.266 142.354L103.848 144.334L99.581 145.44L99.432 146.63L101.288 147.337L108.441 146.63L106.852 143.009Z" fill="#B28056"/>
<path id="Vector_29" d="M106.852 143.009L106.266 142.354L103.848 144.334L102.164 144.771L103.584 144.863L105.35 143.892L106.862 143.228L106.852 143.009Z" fill="#9E6E49"/>
<path id="Vector_30" d="M129.107 60.893L129.041 61.887L127.783 65.531L127.372 66.304L124.735 64.228L120.981 61.444L117.008 58.134L114.722 55.84L116.257 48.904L115.396 48.772L114.49 51.378L114.005 54.424L113.122 53.629L111.179 50.405L110.163 48.109L109.368 48.639L110.692 51.554L113.652 56.19L114.093 58.973L115.462 63.809L116.854 67.915L117.713 67.849L116.257 63.344L115.595 60.121L115.198 58.84L114.844 57.471L119.237 61.357L125.862 66.325L126.954 67.089L126.656 67.65L124.735 69.615L125.464 70.101L127.363 68.4L128.357 66.479L129.152 64.403L129.77 61.622L129.107 60.893Z" fill="#B28056"/>
<path id="Vector_31" d="M127.165 66.966L124.648 65.022L117.847 59.725L114.271 56.367L112.681 54.159L110.604 50.803L109.661 48.443L109.368 48.639L110.692 51.554L113.652 56.19L113.716 56.601L114.226 57.029L114.623 58.001L115.374 60.96L115.992 63.963L115.592 64.191L116.854 67.915L117.713 67.849L116.257 63.344L115.595 60.121L115.198 58.84L114.844 57.471L119.237 61.357L125.862 66.325L126.954 67.089L126.656 67.65L124.735 69.615L125.464 70.101L126.831 68.878L126.414 68.644L126.635 67.981L127.165 66.966Z" fill="#9E6E49"/>
<path id="Vector_32" d="M114.711 52.261L115.877 48.846L115.396 48.772L114.49 51.378L114.005 54.424L113.962 54.384L114.093 54.91L114.711 52.261Z" fill="#9E6E49"/>
<path id="Vector_33" d="M94.487 64.403L94.752 64.095L92.885 62.803L92.567 63.366L94.487 64.403Z" fill="#68352A"/>
<path id="Vector_34" d="M94.088 65.0661L94.222 64.8011L92.308 63.8251L92.278 63.8751L92.165 64.1031L94.088 65.0661Z" fill="#68352A"/>
<path id="Vector_35" d="M97.401 60.076L97.534 59.679L95.45 58.275L95.211 58.697L97.401 60.076Z" fill="#68352A"/>
<path id="Vector_36" d="M98.152 58.973V58.662L96.123 57.089L95.955 57.387L98.152 58.973Z" fill="#68352A"/>
<path id="Vector_37" d="M98.188 53.444L100.36 56.367L100.801 55.749L98.341 53.172L98.188 53.444Z" fill="#68352A"/>
<path id="Vector_38" d="M102.833 53.585L103.099 53.364L100.51 50.234L100.235 50.493L102.833 53.585Z" fill="#68352A"/>
<path id="Vector_39" d="M103.274 53.0121L103.54 52.7891L101.266 49.524L101.003 49.7721L103.274 53.0121Z" fill="#68352A"/>
<path id="Vector_40" d="M103.694 47.244L103.171 47.735L103.671 48.904L105.04 52.128L105.305 52.039L103.694 47.244Z" fill="#68352A"/>
<path id="Vector_41" d="M105.129 49.478L106.101 50.935L106.365 50.714L104.635 47.043L104.184 47.115L105.129 49.478Z" fill="#68352A"/>
<path id="Vector_42" d="M106.41 50.317L106.719 50.14L105.283 46.941L104.994 46.986L106.41 50.317Z" fill="#68352A"/>
<path id="Vector_43" d="M109.181 46.321L108.829 46.377L108.75 49.213H109.059L109.181 46.321Z" fill="#68352A"/>
<path id="Vector_44" d="M110.826 48.4621L111.047 48.4181L110.701 46.0791L110.352 46.1361L110.826 48.4621Z" fill="#68352A"/>
<path id="Vector_45" d="M118.623 47.031L116.7 49.92L116.876 50.185L118.892 47.298L118.623 47.031Z" fill="#68352A"/>
</g>
</g>
</svg>
