<svg width="160" height="191" viewBox="0 0 160 191" fill="none" xmlns="http://www.w3.org/2000/svg">
<g id="Frame 107">
<rect x="0.5" y="0.5" width="159" height="190" rx="7.5" fill="#050505"/>
<rect x="0.5" y="0.5" width="159" height="190" rx="7.5" stroke="#141414"/>
<g id="Group">
<path id="Vector" d="M96.3705 94.6788C96.8595 85.6244 104.262 78.1954 113.399 77.8667C122.536 77.5384 130.038 84.4319 130.653 93.4465L131.976 93.3989C131.354 83.6508 123.257 76.1843 113.39 76.5391C103.522 76.8939 95.534 84.9382 95.0478 94.7262L96.3705 94.6788Z" fill="#4F151F"/>
<path id="Vector_2" d="M97.3713 112.691C97.8604 103.637 105.262 96.2078 114.4 95.8791C123.537 95.5509 131.039 102.444 131.654 111.459L132.977 111.411C132.354 101.663 124.258 94.1967 114.391 94.5514C104.523 94.9062 96.5345 102.951 96.0485 112.739L97.3713 112.691Z" fill="#4F151F"/>
<path id="Vector_3" d="M92.3679 131.705C92.8569 122.65 100.259 115.221 109.396 114.893C118.534 114.564 126.036 121.458 126.651 130.472L127.973 130.425C127.351 120.677 119.255 113.21 109.387 113.565C99.519 113.92 91.5311 121.964 91.0451 131.752L92.3679 131.705Z" fill="#4F151F"/>
<path id="Vector_4" d="M63.6059 94.6788C63.1168 85.6244 55.715 78.1954 46.5777 77.8667C37.4402 77.5384 29.9383 84.4319 29.3233 93.4465L28.0008 93.3989C28.6231 83.6508 36.7193 76.1843 46.587 76.5391C56.4548 76.8939 64.4426 84.9382 64.9288 94.7262L63.6059 94.6788Z" fill="#4F151F"/>
<path id="Vector_5" d="M62.6053 112.691C62.1162 103.637 54.7144 96.2078 45.5769 95.8791C36.4394 95.5509 28.9376 102.444 28.3224 111.459L27 111.411C27.6223 101.663 35.7185 94.1967 45.5862 94.5514C55.4542 94.9062 63.4421 102.951 63.9279 112.739L62.6053 112.691Z" fill="#4F151F"/>
<path id="Vector_6" d="M67.6087 131.705C67.1197 122.65 59.7178 115.221 50.5803 114.893C41.443 114.564 33.941 121.458 33.326 130.472L32.0034 130.425C32.6257 120.677 40.7219 113.21 50.5897 113.565C60.4574 113.92 68.4453 121.964 68.9315 131.752L67.6087 131.705Z" fill="#4F151F"/>
<path id="Vector_7" d="M116.958 103.672C116.958 124.284 100.249 151 79.6375 151C59.0258 151 42.3169 124.284 42.3169 103.672C42.3169 83.0603 59.0258 66.3513 79.6375 66.3513C100.249 66.3513 116.958 83.0603 116.958 103.672Z" fill="#EC2224"/>
<g id="Group_2">
<path id="Vector_8" d="M80.6382 66.7412H78.6368V151H80.6382V66.7412Z" fill="#FAAE41"/>
</g>
<path id="Vector_9" d="M95.8157 57.1783C95.8157 66.1131 88.5724 73.3564 79.6373 73.3564C70.7025 73.3564 63.4592 66.1131 63.4592 57.1783C63.4592 48.2433 70.7025 41 79.6373 41C88.5724 41 95.8157 48.2433 95.8157 57.1783Z" fill="#FAAE41"/>
<path id="Vector_10" d="M71.1316 131.564C71.1316 134.788 68.518 137.402 65.294 137.402C62.0701 137.402 59.4565 134.788 59.4565 131.564C59.4565 128.341 62.0699 125.727 65.294 125.727C68.5179 125.727 71.1316 128.34 71.1316 131.564Z" fill="#241F20"/>
<path id="Vector_11" d="M59.4565 107.881C59.4565 111.105 56.8431 113.719 53.6188 113.719C50.395 113.719 47.7814 111.105 47.7814 107.881C47.7814 104.657 50.3948 102.043 53.6188 102.043C56.8431 102.043 59.4565 104.657 59.4565 107.881Z" fill="#241F20"/>
<path id="Vector_12" d="M69.297 85.8651C69.297 89.0889 66.6833 91.7027 63.4593 91.7027C60.2354 91.7027 57.6218 89.0891 57.6218 85.8651C57.6218 82.6411 60.2354 80.0276 63.4593 80.0276C66.6833 80.0276 69.297 82.6411 69.297 85.8651Z" fill="#241F20"/>
<path id="Vector_13" d="M88.8106 131.564C88.8106 134.788 91.4241 137.402 94.648 137.402C97.872 137.402 100.485 134.788 100.485 131.564C100.485 128.341 97.8722 125.727 94.648 125.727C91.4242 125.727 88.8106 128.34 88.8106 131.564Z" fill="#241F20"/>
<path id="Vector_14" d="M106.323 113.719C109.547 113.719 112.16 111.105 112.16 107.881C112.16 104.657 109.547 102.043 106.323 102.043C103.099 102.043 100.485 104.657 100.485 107.881C100.485 111.105 103.099 113.719 106.323 113.719Z" fill="#241F20"/>
<path id="Vector_15" d="M90.6451 85.8651C90.6451 89.0889 93.2587 91.7027 96.4829 91.7027C99.7067 91.7027 102.32 89.0891 102.32 85.8651C102.32 82.6411 99.7068 80.0276 96.4829 80.0276C93.2589 80.0278 90.6451 82.6411 90.6451 85.8651Z" fill="#241F20"/>
<path id="Vector_16" d="M95.7979 56.8296C87.4755 59.2862 79.7893 53.3612 80.6017 44.1218C80.2843 44.1435 79.9693 44.1691 79.6375 44.1691C79.4942 44.1691 79.3621 44.1526 79.2215 44.1487C79.461 53.5032 71.2688 58.4987 63.526 55.8574C63.4905 56.2942 63.4594 56.7323 63.4594 57.1783C63.4594 66.1132 70.7027 73.3565 79.6375 73.3565C88.5726 73.3565 95.8159 66.1133 95.8159 57.1783C95.8158 57.0605 95.8004 56.9467 95.7979 56.8296Z" fill="#241F20"/>
<path id="Vector_17" d="M73.985 56.1732C70.5316 51.1319 65.5541 47.1322 60.9953 45.7348C58.8423 45.0746 55.2681 44.3868 51.8262 45.6226C51.8245 45.6697 51.8145 45.7129 51.8112 45.7592C51.6154 44.8762 51.4286 43.9914 51.2535 43.1043C51.3362 43.261 51.4176 43.4188 51.4857 43.589C54.4639 42.6067 57.9045 42.6546 61.593 43.7861C66.6477 45.3355 71.9084 49.5358 75.6652 55.0224L73.985 56.1732Z" fill="#241F20"/>
<path id="Vector_18" d="M85.9572 56.1732C89.4105 51.1319 94.3881 47.1322 98.9469 45.7348C101.1 45.0746 104.674 44.3868 108.116 45.6226C108.118 45.6697 108.128 45.7129 108.131 45.7592C108.327 44.8762 108.513 43.9914 108.689 43.1043C108.606 43.261 108.524 43.4188 108.456 43.589C105.478 42.6067 102.038 42.6546 98.349 43.7861C93.2943 45.3355 88.0337 49.5358 84.2766 55.0224L85.9572 56.1732Z" fill="#241F20"/>
<path id="Vector_19" d="M72.9359 46.3636C72.9533 45.6651 72.4012 45.0847 71.7027 45.0672C71.0041 45.0498 70.4237 45.6019 70.4062 46.3003C70.3888 46.9988 70.9409 47.5791 71.6394 47.5966C72.338 47.614 72.9184 47.062 72.9359 46.3636Z" fill="#241F20"/>
<path id="Vector_20" d="M88.8751 46.3735C88.8945 45.6751 88.3439 45.0933 87.6455 45.0739C86.947 45.0546 86.3651 45.605 86.3457 46.3034C86.3264 47.0018 86.8769 47.5836 87.5754 47.6029C88.2739 47.6223 88.8558 47.0718 88.8751 46.3735Z" fill="#241F20"/>
</g>
</g>
</svg>
