<svg width="160" height="191" viewBox="0 0 160 191" fill="none" xmlns="http://www.w3.org/2000/svg">
<g id="Frame 102">
<rect x="0.5" y="0.5" width="159" height="190" rx="7.5" fill="#050505"/>
<rect x="0.5" y="0.5" width="159" height="190" rx="7.5" stroke="#141414"/>
<g id="Group">
<path id="Vector" d="M105.053 136.122C104.943 135.925 104.837 135.733 104.724 135.531C100.964 128.785 97.1071 122.058 97.0682 121.991L94.2856 123.138C95.6531 125.521 97.0499 127.977 98.4247 130.409C98.8077 131.092 102.967 138.565 101.529 138.73C100.022 138.903 100.986 140 100.986 140H104.093H107.199H111.635C110.738 138.116 107.701 140.59 105.053 136.122Z" fill="#FF922E"/>
<path id="Vector_2" d="M89.9235 136.122C89.8729 135.925 89.8245 135.733 89.7716 135.53C88.0396 128.784 86.2033 122.057 86.1857 121.99L83.3723 123.137C84.023 125.521 84.6833 127.978 85.3267 130.411C85.5079 131.108 87.416 138.564 85.9297 138.729C84.3708 138.903 85.0061 139.999 85.0061 139.999H87.7997H90.9051H95.3413C95.0082 138.116 91.2286 140.59 89.9235 136.122Z" fill="#FF6821"/>
<path id="Vector_3" d="M130.76 79.7892C132.106 74.1389 131.639 67.9883 129 62.8141C126.361 57.6399 121.467 53.5559 115.784 52.3542C110.102 51.1518 103.754 53.0475 99.9983 57.4785C104.445 55.5154 109.705 55.7765 114.183 57.6678C107.51 58.3596 101.296 62.5353 98.1349 68.4519C100.04 67.2532 101.976 66.0398 104.136 65.4052C106.296 64.7707 108.746 64.7787 110.675 65.9393C111.941 66.7015 112.897 67.8995 114.153 68.6779C115.538 69.5377 117.188 69.8304 118.752 70.2918C123.543 71.7055 128.066 75.5805 130.76 79.7892Z" fill="#F52509"/>
<g id="Group_2">
<g id="Group_3">
<path id="Vector_4" d="M66.5637 114.978L40.1572 123.291L40.5607 124.207C41.3934 126.098 43.5685 126.997 45.4928 126.245L67.1381 117.796L66.5637 114.978Z" fill="#F52509"/>
</g>
<g id="Group_4">
<path id="Vector_5" d="M64.982 116.708L35.2303 126.193C31.7903 127.29 28.0408 126.798 25 124.851L50.6795 116.465L61.8906 111.025L64.982 116.708Z" fill="#960E00"/>
</g>
<g id="Group_5">
<g id="Group_6">
<path id="Vector_6" d="M131.456 77.273L130.131 93.7235C129.267 104.458 123.748 114.276 115.028 120.594C104.482 128.234 90.6864 129.739 78.7424 124.551L56.3136 114.808L99.2829 78.1041L104.956 68.7226C108.949 62.1194 117.459 59.8731 124.191 63.646C129.068 66.378 131.905 71.7011 131.456 77.273Z" fill="#BE0D00"/>
</g>
</g>
<path id="Vector_7" d="M121.319 67.5987C118.755 68.4123 116.515 70.4436 115.828 73.0443C115.142 75.645 116.255 78.7188 118.636 79.9718C120.307 80.8522 122.409 80.8309 123.892 82.001C125.572 83.3259 125.896 85.686 126.381 87.7694C126.865 89.8536 128.014 92.1968 130.137 92.4712C130.168 92.4756 130.2 92.4763 130.232 92.48L131.456 77.2721C131.729 73.8872 130.787 70.5955 128.914 67.9193C126.477 67.0639 123.777 66.8188 121.319 67.5987Z" fill="#4F4F4F"/>
<g id="Group_7">
<g id="Group_8">
<path id="Vector_8" d="M99.2837 78.104L102.034 80.9013C107.903 86.87 107.319 96.605 100.78 101.831C99.2573 103.048 97.4988 103.936 95.6163 104.44L50.6794 116.465L99.2837 78.104Z" fill="#960E00"/>
</g>
</g>
<g id="Group_9">
<path id="Vector_9" d="M118.5 73.7272C118.724 74.8305 119.801 75.5429 120.905 75.3184C122.01 75.0939 122.721 74.0169 122.497 72.9128C122.272 71.8095 121.195 71.0971 120.091 71.3216C118.987 71.5468 118.275 72.6238 118.5 73.7272Z" fill="#F6ECDE"/>
</g>
<g id="Group_10">
<path id="Vector_10" d="M135.894 76.4702L131.224 73.3208C131.224 73.3208 129.379 74.3589 129.032 75.6515C128.684 76.9441 131.351 78.5845 131.351 78.5845L135.894 76.4702Z" fill="#FF8535"/>
</g>
<g id="Group_11">
<g id="Group_12">
<path id="Vector_11" d="M99.2837 78.104L102.034 80.9013C107.196 86.1518 107.364 94.3154 102.879 99.7611L84.5981 89.6944L99.2837 78.104Z" fill="#F52509"/>
</g>
</g>
</g>
</g>
</g>
</svg>
