<svg width="160" height="191" viewBox="0 0 160 191" fill="none" xmlns="http://www.w3.org/2000/svg">
<g id="Frame 106">
<rect x="0.5" y="0.5" width="159" height="190" rx="7.5" fill="#050505"/>
<rect x="0.5" y="0.5" width="159" height="190" rx="7.5" stroke="#141414"/>
<g id="Group">
<path id="Vector" d="M123.166 99.8973C123.166 99.8973 132.958 84.282 137.141 83.0345C137.141 83.0345 127.868 97.8185 135.039 116.714L123.166 99.8973Z" fill="#27AAE1"/>
<path id="Vector_2" d="M67.7029 55.966C67.7029 55.966 81.5068 41.8712 93.9518 40C83.944 50.6026 90.1564 60.3797 90.1564 60.3797C90.1564 60.3797 78.9042 55.9246 67.7029 55.966Z" fill="#27AAE1"/>
<path id="Vector_3" d="M67.88 139.828C67.88 139.828 83.9217 151.311 96.5027 150.994C84.8058 142.29 89.5871 133.63 89.5871 133.63C89.5871 133.63 78.9183 137.924 67.88 139.828Z" fill="#296EB7"/>
<path id="Vector_4" d="M123.166 99.8973C123.166 99.8973 100.52 144.244 72.5832 144.244C44.6469 144.244 22 99.8973 22 99.8973C22 99.8973 44.6469 55.5503 72.5832 55.5503C100.52 55.5503 123.166 99.8973 123.166 99.8973Z" fill="#682F78"/>
<path id="Vector_5" d="M70.2235 96.6822C70.2235 96.6822 89.9949 87.1671 91.4313 86.8011C87.3394 90.2329 76.5133 104.754 84.4852 118.592L70.2235 96.6822Z" fill="#296EB7"/>
<path id="Vector_6" d="M50.9536 89.2957C50.9536 92.0511 48.72 94.2849 45.9646 94.2849C43.2092 94.2849 40.9756 92.0511 40.9756 89.2957C40.9756 86.5404 43.2092 84.3069 45.9646 84.3069C48.72 84.3069 50.9536 86.5403 50.9536 89.2957Z" fill="white"/>
<path id="Vector_7" d="M48.4592 89.2957C48.4592 90.6735 47.3423 91.7902 45.9647 91.7902C44.5871 91.7902 43.4703 90.6735 43.4703 89.2957C43.4703 87.9179 44.5871 86.8011 45.9647 86.8011C47.3423 86.8011 48.4592 87.9179 48.4592 89.2957Z" fill="black"/>
<path id="Vector_8" d="M72.2446 140.295C72.2446 140.295 89.2616 150.277 101.762 148.819C89.3238 141.212 93.3002 132.154 93.3002 132.154C93.3002 132.154 83.0648 137.398 72.2446 140.295Z" fill="#27AAE1"/>
<path id="Vector_9" d="M65.4496 94.8041C65.4496 94.8041 85.2211 85.2888 86.6574 84.923C82.5655 88.3549 71.7395 102.876 79.7113 116.714L65.4496 94.8041Z" fill="#008BCD"/>
<path id="Vector_10" d="M60.6686 92.5751C60.6686 92.5751 80.4399 83.0595 81.8763 82.6941C77.7845 86.1258 66.9583 100.647 74.9303 114.485L60.6686 92.5751Z" fill="#27AAE1"/>
</g>
</g>
</svg>
