<svg width="160" height="191" viewBox="0 0 160 191" fill="none" xmlns="http://www.w3.org/2000/svg">
<g id="Frame 105">
<rect x="0.5" y="0.5" width="159" height="190" rx="7.5" fill="#050505"/>
<rect x="0.5" y="0.5" width="159" height="190" rx="7.5" stroke="#141414"/>
<g id="Group">
<path id="Vector" d="M53.1164 106.153C53.1164 106.153 45.911 135.374 38.3054 134.974C30.6998 134.574 32.7012 116.56 38.3054 111.757C43.9096 106.953 53.1164 106.153 53.1164 106.153Z" fill="#603913"/>
<path id="Vector_2" d="M67.2127 59.739C49.3812 59.739 38.1584 74.6871 28.4091 80.9546C16.0534 88.8975 16 94.5647 16 94.5647C16 94.5647 29.2097 122.986 69.6395 122.986C110.069 122.986 122.879 94.1643 122.879 94.1643C122.879 94.1643 107.642 59.739 67.2127 59.739Z" fill="#ED1C24"/>
<path id="Vector_3" d="M122.879 94.1643C122.879 94.1643 134.487 75.2353 140.091 73.6342C145.695 72.033 138.08 87.7345 136.479 91.3623C134.878 94.99 152.5 112.978 141.292 109.776C130.084 106.573 122.879 94.1643 122.879 94.1643Z" fill="#F7941D"/>
<path id="Vector_4" d="M72.4881 59.9397C72.4881 59.9397 97.6602 48.5305 108.068 57.3371C108.068 57.3371 103.866 67.7003 112.517 79.3107C112.517 79.3107 92.1488 60.5409 72.4881 59.9397Z" fill="#F7941D"/>
<path id="Vector_5" d="M43.2199 108.175C43.2199 108.175 50.4252 137.396 58.0309 136.996C65.6365 136.596 63.6351 118.582 58.0309 113.779C52.4267 108.975 43.2199 108.175 43.2199 108.175Z" fill="#603913"/>
<path id="Vector_6" d="M43.0073 88.9355C45.1006 88.9355 46.7975 87.2386 46.7975 85.1453C46.7975 83.052 45.1006 81.355 43.0073 81.355C40.9139 81.355 39.217 83.052 39.217 85.1453C39.217 87.2386 40.9139 88.9355 43.0073 88.9355Z" fill="white"/>
<path id="Vector_7" d="M44.7962 85.1452C44.7962 86.1331 43.9953 86.9339 43.0073 86.9339C42.0195 86.9339 41.2186 86.1331 41.2186 85.1452C41.2186 84.1572 42.0195 83.3563 43.0073 83.3563C43.9953 83.3563 44.7962 84.1572 44.7962 85.1452Z" fill="black"/>
<path id="Vector_8" d="M77.6714 122.587C77.6714 122.587 102.464 131.755 116.074 120.566C116.074 120.566 109.797 110.894 114.018 106.153C114.018 106.153 103.251 118.372 77.6714 122.587Z" fill="#F7941D"/>
<path id="Vector_9" d="M84.6622 106.988C84.6622 108.172 83.7025 109.132 82.5186 109.132C81.3346 109.132 80.3748 108.172 80.3748 106.988C80.3748 105.804 81.3346 104.845 82.5186 104.845C83.7025 104.845 84.6622 105.804 84.6622 106.988Z" fill="white"/>
<path id="Vector_10" d="M91.8638 109.291C91.8638 110.624 90.7827 111.705 89.4492 111.705C88.1155 111.705 87.0344 110.624 87.0344 109.291C87.0344 107.957 88.1155 106.876 89.4492 106.876C90.7827 106.876 91.8638 107.957 91.8638 109.291Z" fill="white"/>
<path id="Vector_11" d="M98.0812 110.589C99.4148 110.589 100.496 109.508 100.496 108.175C100.496 106.841 99.4148 105.76 98.0812 105.76C96.7476 105.76 95.6665 106.841 95.6665 108.175C95.6665 109.508 96.7476 110.589 98.0812 110.589Z" fill="white"/>
<path id="Vector_12" d="M102.911 106.291C104.244 106.291 105.325 105.209 105.325 103.876C105.325 102.542 104.244 101.461 102.911 101.461C101.577 101.461 100.496 102.542 100.496 103.876C100.496 105.209 101.577 106.291 102.911 106.291Z" fill="white"/>
<path id="Vector_13" d="M94.2358 103.876C94.2358 105.021 93.3072 105.95 92.1617 105.95C91.0163 105.95 90.0876 105.021 90.0876 103.876C90.0876 102.73 91.0163 101.802 92.1617 101.802C93.3072 101.802 94.2358 102.73 94.2358 103.876Z" fill="white"/>
<path id="Vector_14" d="M85.8334 99.6723C86.0414 98.7852 85.4909 97.8974 84.6037 97.6894C83.7166 97.4813 82.8288 98.0319 82.6208 98.919C82.4128 99.8061 82.9633 100.694 83.8504 100.902C84.7375 101.11 85.6253 100.559 85.8334 99.6723Z" fill="white"/>
<path id="Vector_15" d="M77.6375 93.3115C77.6375 94.0572 77.0329 94.6618 76.287 94.6618C75.5413 94.6618 74.9367 94.0572 74.9367 93.3115C74.9367 92.5656 75.5413 91.9611 76.287 91.9611C77.0328 91.9611 77.6375 92.5656 77.6375 93.3115Z" fill="white"/>
<path id="Vector_16" d="M64.2943 96.3887C64.2943 96.9554 63.8348 97.415 63.2681 97.415C62.7013 97.415 62.2419 96.9555 62.2419 96.3887C62.2419 95.822 62.7013 95.3624 63.2681 95.3624C63.8347 95.3625 64.2943 95.822 64.2943 96.3887Z" fill="white"/>
<path id="Vector_17" d="M76.287 83.9091C76.8538 83.9091 77.3132 83.4497 77.3132 82.8829C77.3132 82.3161 76.8538 81.8566 76.287 81.8566C75.7202 81.8566 75.2607 82.3161 75.2607 82.8829C75.2607 83.4497 75.7202 83.9091 76.287 83.9091Z" fill="white"/>
<path id="Vector_18" d="M90.0876 79.3109C90.6544 79.3109 91.1139 78.8514 91.1139 78.2846C91.1139 77.7178 90.6544 77.2583 90.0876 77.2583C89.5208 77.2583 89.0613 77.7178 89.0613 78.2846C89.0613 78.8514 89.5208 79.3109 90.0876 79.3109Z" fill="white"/>
<path id="Vector_19" d="M58.2828 105.264C58.2828 105.831 57.8232 106.291 57.2566 106.291C56.6897 106.291 56.2303 105.831 56.2303 105.264C56.2303 104.698 56.6897 104.238 57.2566 104.238C57.8232 104.238 58.2828 104.698 58.2828 105.264Z" fill="white"/>
<path id="Vector_20" d="M87.8864 86.9339C87.8864 87.6798 87.282 88.2843 86.5361 88.2843C85.7904 88.2843 85.1857 87.6798 85.1857 86.9339C85.1857 86.1882 85.7904 85.5836 86.5361 85.5836C87.2819 85.5836 87.8864 86.1882 87.8864 86.9339Z" fill="white"/>
<path id="Vector_21" d="M99.4315 84.2332C99.4315 84.9791 98.8269 85.5836 98.0812 85.5836C97.3354 85.5836 96.7309 84.9791 96.7309 84.2332C96.7309 83.4875 97.3354 82.8829 98.0812 82.8829C98.8269 82.8829 99.4315 83.4875 99.4315 84.2332Z" fill="white"/>
<path id="Vector_22" d="M74.1106 104.624C74.288 103.73 73.7072 102.862 72.8134 102.685C71.9196 102.507 71.0513 103.088 70.874 103.982C70.6967 104.876 71.2775 105.744 72.1713 105.921C73.065 106.098 73.9333 105.518 74.1106 104.624Z" fill="white"/>
<path id="Vector_23" d="M92.2641 95.1537C92.9084 94.5094 92.9084 93.4648 92.2641 92.8205C91.6198 92.1762 90.5752 92.1762 89.9309 92.8205C89.2866 93.4648 89.2866 94.5094 89.9309 95.1537C90.5752 95.798 91.6198 95.798 92.2641 95.1537Z" fill="white"/>
<path id="Vector_24" d="M101.661 91.7521C102.305 91.1078 102.305 90.0632 101.661 89.4189C101.017 88.7746 99.972 88.7746 99.3277 89.4189C98.6834 90.0631 98.6834 91.1078 99.3277 91.7521C99.972 92.3963 101.017 92.3963 101.661 91.7521Z" fill="white"/>
<path id="Vector_25" d="M109.049 91.3623C109.96 91.3623 110.699 90.6236 110.699 89.7125C110.699 88.8013 109.96 88.0626 109.049 88.0626C108.138 88.0626 107.399 88.8013 107.399 89.7125C107.399 90.6236 108.138 91.3623 109.049 91.3623Z" fill="white"/>
<path id="Vector_26" d="M98.9466 98.8625C98.9466 100.008 98.018 100.937 96.8725 100.937C95.7271 100.937 94.7984 100.008 94.7984 98.8625C94.7984 97.717 95.7271 96.7883 96.8725 96.7883C98.018 96.7883 98.9466 97.7169 98.9466 98.8625Z" fill="white"/>
<path id="Vector_27" d="M107.399 96.7883C107.399 97.9337 106.471 98.8624 105.325 98.8624C104.18 98.8624 103.251 97.9337 103.251 96.7883C103.251 95.6428 104.18 94.7142 105.325 94.7142C106.471 94.7142 107.399 95.6428 107.399 96.7883Z" fill="white"/>
</g>
</g>
</svg>
