<svg width="160" height="191" viewBox="0 0 160 191" fill="none" xmlns="http://www.w3.org/2000/svg">
<g id="Frame 103">
<rect x="0.5" y="0.5" width="159" height="190" rx="7.5" fill="#050505"/>
<rect x="0.5" y="0.5" width="159" height="190" rx="7.5" stroke="#141414"/>
<g id="Group">
<g id="Group_2">
<g id="Group_3">
<path id="Vector" d="M89.1978 135.341C88.9446 134.325 88.657 133.191 88.3269 131.906C86.9962 126.722 85.5852 121.553 85.5713 121.501L83.4094 122.382C84.5924 126.715 85.8171 131.36 86.8113 135.341H89.1978Z" fill="#FF6821"/>
</g>
<path id="Vector_2" d="M88.327 131.906C89.1978 135.962 92.3405 133.832 92.6063 135.341H84.6647C84.6647 135.341 84.1769 134.498 85.3745 134.364C86.5727 134.231 84.8993 127.928 84.8993 127.928" fill="#FF6821"/>
<g id="Group_4">
<path id="Vector_3" d="M82.3213 135.341C82.0681 134.325 81.7805 133.191 81.4505 131.906C80.1197 126.722 78.7087 121.553 78.6948 121.501L76.533 122.382C77.7159 126.715 78.94 131.36 79.9348 135.341H82.3213Z" fill="#FF922E"/>
</g>
<path id="Vector_4" d="M81.4505 131.906C82.3214 135.962 85.4641 133.832 85.7298 135.341H77.7882C77.7882 135.341 77.3005 134.498 78.498 134.364C79.6963 134.231 78.0228 127.928 78.0228 127.928" fill="#FF922E"/>
</g>
<g id="Group_5">
<g id="Group_6">
<path id="Vector_5" d="M64.8057 116.679L48.1233 137.048L50.8279 137.618C52.728 138.017 54.6731 137.174 55.6798 135.514L65.9065 118.647L64.8057 116.679Z" fill="#68940B"/>
</g>
<g id="Group_7">
<g id="Group_8">
<path id="Vector_6" d="M60.26 117.046L39 139.367L42.4515 139.909C45.1833 140.338 47.9297 139.232 49.6038 137.031L63.5869 118.646L60.26 117.046Z" fill="#466102"/>
</g>
</g>
<g id="Group_9">
<g id="Group_10">
<path id="Vector_7" d="M58.9478 118.801L88.3283 79.5248L92.6752 70.6236C94.385 67.1224 97.6444 64.6318 101.472 63.9015L96.9876 58.3398L102.863 61.4328L98.0698 52L107.949 61.0616C113.917 66.5365 115.561 75.2899 111.987 82.5575L112.587 87.7799C113.678 97.2604 110.564 106.743 104.066 113.733C95.3321 123.125 81.907 126.532 69.7524 122.439L58.9478 118.801Z" fill="#FFB724"/>
</g>
</g>
<path id="Vector_8" d="M112.79 68.3478C110.546 67.6234 108.252 67.0746 105.916 67.2138C102.728 67.4034 99.4105 69.2067 98.4508 72.2526C97.7443 74.494 98.4442 77.0064 99.8273 78.9065C101.21 80.8059 103.201 82.1745 105.26 83.3091C98.6669 94.2151 91.447 105.415 84.8541 116.321C83.4073 118.714 81.9221 121.412 81.7366 124.103C90.097 123.699 98.1566 120.089 104.067 113.732C110.565 106.743 113.679 97.2604 112.588 87.7792L111.987 82.5569C114.222 78.0138 114.417 72.8888 112.79 68.3478Z" fill="#FFE132"/>
<g id="Group_11">
<g id="Group_12">
<path id="Vector_9" d="M88.3282 79.5248L55.5459 120.039L69.1499 117.158C81.8241 114.475 91.848 104.782 94.9556 92.205C95.8231 88.6938 94.6474 84.993 91.9123 82.6264L88.3282 79.5248Z" fill="#68940B"/>
</g>
</g>
<g id="Group_13">
<g id="Group_14">
<path id="Vector_10" d="M93.5877 96.4829C94.1318 95.0998 94.5924 93.6729 94.9556 92.205C95.8231 88.6938 94.6474 84.993 91.9123 82.6264L88.3282 79.5248L74.6062 96.4829H93.5877Z" fill="#77A023"/>
<path id="Vector_11" d="M69.8372 102.377L55.5459 120.039L69.1499 117.158C78.1247 115.258 85.7701 109.842 90.5723 102.377H69.8372Z" fill="#598F00"/>
</g>
</g>
<g id="Group_15">
<path id="Vector_12" d="M107.039 71.7927C107.039 72.9883 106.069 73.9572 104.873 73.9572C103.678 73.9572 102.708 72.9883 102.708 71.7927C102.708 70.5971 103.678 69.6276 104.873 69.6276C106.069 69.6282 107.039 70.5971 107.039 71.7927Z" fill="#4F4F4F"/>
</g>
<g id="Group_16">
<path id="Vector_13" d="M111.059 75.6584C111.059 75.6584 113.106 73.1844 113.861 72.8749C114.616 72.5654 121.419 76.5862 121.419 76.5862C121.419 76.5862 114.518 78.2338 113.484 78.1834C112.451 78.1331 111.059 75.6584 111.059 75.6584Z" fill="#4F4F4F"/>
</g>
</g>
</g>
</g>
</svg>
