<svg width="160" height="191" viewBox="0 0 160 191" fill="none" xmlns="http://www.w3.org/2000/svg">
<g id="Frame 104">
<rect x="0.5" y="0.5" width="159" height="190" rx="7.5" fill="#050505"/>
<rect x="0.5" y="0.5" width="159" height="190" rx="7.5" stroke="#141414"/>
<g id="Group">
<path id="Vector" d="M67.14 74.5082C18.6078 74.5082 9 96.9226 9 96.9226C9 96.9226 23.9964 115.215 69.895 115.215C115.794 115.215 130.335 96.6649 130.335 96.6649C130.335 96.6649 113.038 74.5082 67.14 74.5082Z" fill="#0089CC"/>
<path id="Vector_2" d="M66.4642 101.935C17.9319 101.935 9 96.9216 9 96.9216C9 96.9216 23.9964 115.214 69.895 115.214C115.794 115.214 130.335 96.6639 130.335 96.6639C130.335 96.6639 112.362 101.935 66.4642 101.935Z" fill="#2670B8"/>
<path id="Vector_3" d="M130.335 96.665L149.877 74.7355C149.877 74.7355 142.94 88.5818 142.94 94.8614C142.94 101.141 151.24 115.766 151.24 115.766L130.335 96.665Z" fill="#262262"/>
<path id="Vector_4" d="M57.1797 74.8452C57.1797 74.8452 74.2872 63.9678 87.4078 60.0487C89.0235 59.566 85.1319 65.6155 86.7758 65.1549C91.7728 63.7548 101.573 60.8839 106.13 60.0213C108.802 59.5154 102.57 68.2119 105.004 67.6525C109.553 66.6071 119.171 63.7935 122.08 62.5873C122.08 62.5873 111.682 76.0313 121.504 89.2122C121.504 89.2122 100.736 73.6936 57.1797 74.8452Z" fill="#262262"/>
<path id="Vector_5" d="M57.1256 114.715C57.1256 114.715 72.9651 125.562 82.6479 127.322C84.6566 127.688 81.1195 119.65 83.2856 120.07C85.2844 120.457 99.945 130.572 102.005 131C102.005 131 100.136 119.094 103.909 120.024C105.838 120.499 119.078 124.631 122.08 126.053C122.08 126.053 111.62 116.057 122.08 103.376C122.08 103.376 100.572 118.011 57.1256 114.715Z" fill="#262262"/>
<path id="Vector_6" d="M43.9638 87.8032C43.9638 90.1796 42.0375 92.1061 39.6608 92.1061C37.2844 92.1061 35.3581 90.1795 35.3581 87.8032C35.3581 85.4266 37.2846 83.5002 39.6608 83.5002C42.0375 83.5001 43.9638 85.4266 43.9638 87.8032Z" fill="white"/>
<path id="Vector_7" d="M41.6909 87.8026C41.6909 88.9241 40.7817 89.8333 39.66 89.8333C38.5386 89.8333 37.6294 88.9241 37.6294 87.8026C37.6294 86.6809 38.5386 85.7717 39.66 85.7717C40.7817 85.7717 41.6909 86.6809 41.6909 87.8026Z" fill="black"/>
<path id="Vector_8" d="M62.6842 89.8299C60.8542 88.2976 61.0711 86.108 63.166 84.9644L65.6906 83.5863C67.7857 82.4426 69.3072 83.4502 69.0721 85.8256L68.6441 90.144C68.4092 92.5196 66.7191 93.2091 64.8895 91.6766L62.6842 89.8299Z" fill="white"/>
<path id="Vector_9" d="M71.5991 89.9158C69.9241 88.6562 70.1228 86.8563 72.0398 85.9162L74.3497 84.7834C76.2669 83.8433 77.6597 84.6716 77.4443 86.6241L77.0528 90.174C76.8379 92.1266 75.2911 92.6935 73.6168 91.4338L71.5991 89.9158Z" fill="white"/>
<path id="Vector_10" d="M79.4029 89.8413C78.0647 88.7207 78.2234 87.1196 79.7552 86.2835L81.6009 85.2758C83.133 84.4396 84.2454 85.1763 84.0734 86.9131L83.7607 90.0709C83.5888 91.8078 82.3529 92.312 81.015 91.1915L79.4029 89.8413Z" fill="white"/>
<path id="Vector_11" d="M85.8977 90.4406C84.7845 89.4906 84.9167 88.1328 86.191 87.4237L87.7265 86.5692C89.0008 85.8601 89.9264 86.4848 89.7833 87.9577L89.523 90.6355C89.3801 92.1084 88.352 92.536 87.239 91.5858L85.8977 90.4406Z" fill="white"/>
<path id="Vector_12" d="M91.2725 90.415C90.4054 89.6748 90.5083 88.6172 91.501 88.0647L92.6972 87.399C93.6901 86.8465 94.4108 87.3332 94.2996 88.4805L94.0969 90.5667C93.9853 91.7141 93.1845 92.0471 92.3174 91.3071L91.2725 90.415Z" fill="white"/>
<path id="Vector_13" d="M95.6505 90.5207C95.0437 90.0026 95.1155 89.2623 95.8104 88.8756L96.6477 88.4097C97.3426 88.023 97.8474 88.3636 97.7693 89.1667L97.6273 90.6268C97.5492 91.43 96.9889 91.6631 96.3818 91.1451L95.6505 90.5207Z" fill="white"/>
<path id="Vector_14" d="M98.7057 90.3671C98.2353 89.9656 98.2915 89.3919 98.8298 89.0921L99.4786 88.7309C100.017 88.4313 100.409 88.6954 100.348 89.3178L100.238 90.4496C100.177 91.072 99.7434 91.2527 99.273 90.8511L98.7057 90.3671Z" fill="white"/>
<path id="Vector_15" d="M101.215 90.5047C100.847 90.1906 100.89 89.7416 101.311 89.5073L101.819 89.2246C102.241 88.9902 102.546 89.1968 102.499 89.6839L102.413 90.5691C102.366 91.0561 102.026 91.1974 101.658 90.8834L101.215 90.5047Z" fill="white"/>
</g>
</g>
</svg>
